<mxfile host="app.diagrams.net" modified="2023-06-21T04:54:15.666Z" agent="Mozilla/5.0 (Windows NT 10.0; Win64; x64) AppleWebKit/537.36 (KHTML, like Gecko) Chrome/114.0.0.0 Safari/537.36" etag="qmbIN7GSlCQCiiNh3KSd" version="21.5.0" type="device">
  <diagram name="페이지-1" id="0Pr_wT6un8VvMLoj9oqX">
    <mxGraphModel dx="2154" dy="1038" grid="1" gridSize="10" guides="1" tooltips="1" connect="1" arrows="1" fold="1" page="1" pageScale="1" pageWidth="827" pageHeight="1169" math="0" shadow="0">
      <root>
        <mxCell id="0" />
        <mxCell id="1" parent="0" />
        <mxCell id="CLgTZYgxBi5z5J0grJYt-29" value="" style="rounded=0;whiteSpace=wrap;html=1;fillColor=#FFFF33;" parent="1" vertex="1">
          <mxGeometry x="660" y="240" width="160" height="120" as="geometry" />
        </mxCell>
        <mxCell id="CLgTZYgxBi5z5J0grJYt-8" value="" style="rounded=0;whiteSpace=wrap;html=1;fillColor=#FFFF33;" parent="1" vertex="1">
          <mxGeometry x="60" y="160" width="160" height="120" as="geometry" />
        </mxCell>
        <mxCell id="CLgTZYgxBi5z5J0grJYt-7" value="" style="group" parent="1" vertex="1" connectable="0">
          <mxGeometry x="80" y="160" width="160" height="240" as="geometry" />
        </mxCell>
        <mxCell id="CLgTZYgxBi5z5J0grJYt-1" value="&lt;font style=&quot;font-size: 24px;&quot;&gt;1-a&lt;/font&gt;" style="rounded=0;whiteSpace=wrap;html=1;" parent="CLgTZYgxBi5z5J0grJYt-7" vertex="1">
          <mxGeometry width="120" height="40" as="geometry" />
        </mxCell>
        <mxCell id="CLgTZYgxBi5z5J0grJYt-2" value="&lt;font style=&quot;font-size: 24px;&quot;&gt;2-b&lt;/font&gt;" style="rounded=0;whiteSpace=wrap;html=1;" parent="CLgTZYgxBi5z5J0grJYt-7" vertex="1">
          <mxGeometry y="40" width="120" height="40" as="geometry" />
        </mxCell>
        <mxCell id="CLgTZYgxBi5z5J0grJYt-3" value="&lt;font style=&quot;font-size: 24px;&quot;&gt;3-c&lt;/font&gt;" style="rounded=0;whiteSpace=wrap;html=1;" parent="CLgTZYgxBi5z5J0grJYt-7" vertex="1">
          <mxGeometry y="80" width="120" height="40" as="geometry" />
        </mxCell>
        <mxCell id="CLgTZYgxBi5z5J0grJYt-4" value="&lt;font style=&quot;font-size: 24px;&quot;&gt;4-a&lt;/font&gt;" style="rounded=0;whiteSpace=wrap;html=1;" parent="CLgTZYgxBi5z5J0grJYt-7" vertex="1">
          <mxGeometry y="120" width="120" height="40" as="geometry" />
        </mxCell>
        <mxCell id="CLgTZYgxBi5z5J0grJYt-5" value="&lt;font style=&quot;font-size: 24px;&quot;&gt;5-b&lt;/font&gt;" style="rounded=0;whiteSpace=wrap;html=1;" parent="CLgTZYgxBi5z5J0grJYt-7" vertex="1">
          <mxGeometry y="160" width="120" height="40" as="geometry" />
        </mxCell>
        <mxCell id="CLgTZYgxBi5z5J0grJYt-6" value="&lt;font style=&quot;font-size: 24px;&quot;&gt;6-c&lt;/font&gt;" style="rounded=0;whiteSpace=wrap;html=1;" parent="CLgTZYgxBi5z5J0grJYt-7" vertex="1">
          <mxGeometry y="200" width="120" height="40" as="geometry" />
        </mxCell>
        <mxCell id="CLgTZYgxBi5z5J0grJYt-10" value="" style="group" parent="1" vertex="1" connectable="0">
          <mxGeometry x="280" y="160" width="160" height="240" as="geometry" />
        </mxCell>
        <mxCell id="CLgTZYgxBi5z5J0grJYt-9" value="" style="rounded=0;whiteSpace=wrap;html=1;fillColor=#FFFF33;" parent="CLgTZYgxBi5z5J0grJYt-10" vertex="1">
          <mxGeometry x="-20" y="40" width="160" height="120" as="geometry" />
        </mxCell>
        <mxCell id="CLgTZYgxBi5z5J0grJYt-11" value="&lt;font style=&quot;font-size: 24px;&quot;&gt;1-a&lt;/font&gt;" style="rounded=0;whiteSpace=wrap;html=1;" parent="CLgTZYgxBi5z5J0grJYt-10" vertex="1">
          <mxGeometry width="120" height="40" as="geometry" />
        </mxCell>
        <mxCell id="CLgTZYgxBi5z5J0grJYt-12" value="&lt;font style=&quot;font-size: 24px;&quot;&gt;2-b&lt;/font&gt;" style="rounded=0;whiteSpace=wrap;html=1;" parent="CLgTZYgxBi5z5J0grJYt-10" vertex="1">
          <mxGeometry y="40" width="120" height="40" as="geometry" />
        </mxCell>
        <mxCell id="CLgTZYgxBi5z5J0grJYt-13" value="&lt;font style=&quot;font-size: 24px;&quot;&gt;3-c&lt;/font&gt;" style="rounded=0;whiteSpace=wrap;html=1;" parent="CLgTZYgxBi5z5J0grJYt-10" vertex="1">
          <mxGeometry y="80" width="120" height="40" as="geometry" />
        </mxCell>
        <mxCell id="CLgTZYgxBi5z5J0grJYt-14" value="&lt;font style=&quot;font-size: 24px;&quot;&gt;4-a&lt;/font&gt;" style="rounded=0;whiteSpace=wrap;html=1;" parent="CLgTZYgxBi5z5J0grJYt-10" vertex="1">
          <mxGeometry y="120" width="120" height="40" as="geometry" />
        </mxCell>
        <mxCell id="CLgTZYgxBi5z5J0grJYt-15" value="&lt;font style=&quot;font-size: 24px;&quot;&gt;5-b&lt;/font&gt;" style="rounded=0;whiteSpace=wrap;html=1;" parent="CLgTZYgxBi5z5J0grJYt-10" vertex="1">
          <mxGeometry y="160" width="120" height="40" as="geometry" />
        </mxCell>
        <mxCell id="CLgTZYgxBi5z5J0grJYt-16" value="&lt;font style=&quot;font-size: 24px;&quot;&gt;6-c&lt;/font&gt;" style="rounded=0;whiteSpace=wrap;html=1;" parent="CLgTZYgxBi5z5J0grJYt-10" vertex="1">
          <mxGeometry y="200" width="120" height="40" as="geometry" />
        </mxCell>
        <mxCell id="CLgTZYgxBi5z5J0grJYt-17" value="&lt;font style=&quot;font-size: 36px;&quot;&gt;0%&lt;/font&gt;" style="rounded=1;whiteSpace=wrap;html=1;" parent="1" vertex="1">
          <mxGeometry x="60" y="80" width="160" height="60" as="geometry" />
        </mxCell>
        <mxCell id="CLgTZYgxBi5z5J0grJYt-18" value="&lt;font style=&quot;font-size: 36px;&quot;&gt;6%&lt;/font&gt;" style="rounded=1;whiteSpace=wrap;html=1;" parent="1" vertex="1">
          <mxGeometry x="260" y="80" width="160" height="60" as="geometry" />
        </mxCell>
        <mxCell id="CLgTZYgxBi5z5J0grJYt-19" value="" style="group" parent="1" vertex="1" connectable="0">
          <mxGeometry x="480" y="160" width="160" height="240" as="geometry" />
        </mxCell>
        <mxCell id="CLgTZYgxBi5z5J0grJYt-20" value="" style="rounded=0;whiteSpace=wrap;html=1;fillColor=#FFFF33;" parent="CLgTZYgxBi5z5J0grJYt-19" vertex="1">
          <mxGeometry x="-20" y="40" width="160" height="120" as="geometry" />
        </mxCell>
        <mxCell id="CLgTZYgxBi5z5J0grJYt-21" value="&lt;font style=&quot;font-size: 24px;&quot;&gt;1-a&lt;/font&gt;" style="rounded=0;whiteSpace=wrap;html=1;" parent="CLgTZYgxBi5z5J0grJYt-19" vertex="1">
          <mxGeometry width="120" height="40" as="geometry" />
        </mxCell>
        <mxCell id="CLgTZYgxBi5z5J0grJYt-22" value="&lt;font style=&quot;font-size: 24px;&quot;&gt;2-b&lt;/font&gt;" style="rounded=0;whiteSpace=wrap;html=1;" parent="CLgTZYgxBi5z5J0grJYt-19" vertex="1">
          <mxGeometry y="40" width="120" height="40" as="geometry" />
        </mxCell>
        <mxCell id="CLgTZYgxBi5z5J0grJYt-23" value="&lt;font style=&quot;font-size: 24px;&quot;&gt;3-c&lt;/font&gt;" style="rounded=0;whiteSpace=wrap;html=1;" parent="CLgTZYgxBi5z5J0grJYt-19" vertex="1">
          <mxGeometry y="80" width="120" height="40" as="geometry" />
        </mxCell>
        <mxCell id="CLgTZYgxBi5z5J0grJYt-24" value="&lt;font style=&quot;font-size: 24px;&quot;&gt;4-a&lt;/font&gt;" style="rounded=0;whiteSpace=wrap;html=1;" parent="CLgTZYgxBi5z5J0grJYt-19" vertex="1">
          <mxGeometry y="120" width="120" height="40" as="geometry" />
        </mxCell>
        <mxCell id="CLgTZYgxBi5z5J0grJYt-25" value="&lt;font style=&quot;font-size: 24px;&quot;&gt;5-b&lt;/font&gt;" style="rounded=0;whiteSpace=wrap;html=1;" parent="CLgTZYgxBi5z5J0grJYt-19" vertex="1">
          <mxGeometry y="160" width="120" height="40" as="geometry" />
        </mxCell>
        <mxCell id="CLgTZYgxBi5z5J0grJYt-26" value="&lt;font style=&quot;font-size: 24px;&quot;&gt;6-c&lt;/font&gt;" style="rounded=0;whiteSpace=wrap;html=1;" parent="CLgTZYgxBi5z5J0grJYt-19" vertex="1">
          <mxGeometry y="200" width="120" height="40" as="geometry" />
        </mxCell>
        <mxCell id="CLgTZYgxBi5z5J0grJYt-27" value="&lt;font style=&quot;font-size: 36px;&quot;&gt;33%&lt;/font&gt;" style="rounded=1;whiteSpace=wrap;html=1;" parent="1" vertex="1">
          <mxGeometry x="460" y="80" width="160" height="60" as="geometry" />
        </mxCell>
        <mxCell id="CLgTZYgxBi5z5J0grJYt-28" value="" style="group" parent="1" vertex="1" connectable="0">
          <mxGeometry x="680" y="160" width="160" height="240" as="geometry" />
        </mxCell>
        <mxCell id="CLgTZYgxBi5z5J0grJYt-30" value="&lt;font style=&quot;font-size: 24px;&quot;&gt;1-a&lt;/font&gt;" style="rounded=0;whiteSpace=wrap;html=1;" parent="CLgTZYgxBi5z5J0grJYt-28" vertex="1">
          <mxGeometry width="120" height="40" as="geometry" />
        </mxCell>
        <mxCell id="CLgTZYgxBi5z5J0grJYt-31" value="&lt;font style=&quot;font-size: 24px;&quot;&gt;2-b&lt;/font&gt;" style="rounded=0;whiteSpace=wrap;html=1;" parent="CLgTZYgxBi5z5J0grJYt-28" vertex="1">
          <mxGeometry y="40" width="120" height="40" as="geometry" />
        </mxCell>
        <mxCell id="CLgTZYgxBi5z5J0grJYt-32" value="&lt;font style=&quot;font-size: 24px;&quot;&gt;3-c&lt;/font&gt;" style="rounded=0;whiteSpace=wrap;html=1;" parent="CLgTZYgxBi5z5J0grJYt-28" vertex="1">
          <mxGeometry y="80" width="120" height="40" as="geometry" />
        </mxCell>
        <mxCell id="CLgTZYgxBi5z5J0grJYt-33" value="&lt;font style=&quot;font-size: 24px;&quot;&gt;4-a&lt;/font&gt;" style="rounded=0;whiteSpace=wrap;html=1;" parent="CLgTZYgxBi5z5J0grJYt-28" vertex="1">
          <mxGeometry y="120" width="120" height="40" as="geometry" />
        </mxCell>
        <mxCell id="CLgTZYgxBi5z5J0grJYt-34" value="&lt;font style=&quot;font-size: 24px;&quot;&gt;5-b&lt;/font&gt;" style="rounded=0;whiteSpace=wrap;html=1;" parent="CLgTZYgxBi5z5J0grJYt-28" vertex="1">
          <mxGeometry y="160" width="120" height="40" as="geometry" />
        </mxCell>
        <mxCell id="CLgTZYgxBi5z5J0grJYt-35" value="&lt;font style=&quot;font-size: 24px;&quot;&gt;6-c&lt;/font&gt;" style="rounded=0;whiteSpace=wrap;html=1;" parent="CLgTZYgxBi5z5J0grJYt-28" vertex="1">
          <mxGeometry y="200" width="120" height="40" as="geometry" />
        </mxCell>
        <mxCell id="CLgTZYgxBi5z5J0grJYt-36" value="&lt;font style=&quot;font-size: 36px;&quot;&gt;39%&lt;/font&gt;" style="rounded=1;whiteSpace=wrap;html=1;" parent="1" vertex="1">
          <mxGeometry x="660" y="80" width="160" height="60" as="geometry" />
        </mxCell>
        <mxCell id="CLgTZYgxBi5z5J0grJYt-38" value="" style="rounded=0;whiteSpace=wrap;html=1;fillColor=#FFFF33;" parent="1" vertex="1">
          <mxGeometry x="860" y="240" width="160" height="120" as="geometry" />
        </mxCell>
        <mxCell id="CLgTZYgxBi5z5J0grJYt-39" value="" style="group" parent="1" vertex="1" connectable="0">
          <mxGeometry x="880" y="160" width="210" height="490" as="geometry" />
        </mxCell>
        <mxCell id="CLgTZYgxBi5z5J0grJYt-40" value="&lt;font style=&quot;font-size: 24px;&quot;&gt;1-a&lt;/font&gt;" style="rounded=0;whiteSpace=wrap;html=1;" parent="CLgTZYgxBi5z5J0grJYt-39" vertex="1">
          <mxGeometry width="120" height="40" as="geometry" />
        </mxCell>
        <mxCell id="CLgTZYgxBi5z5J0grJYt-41" value="&lt;font style=&quot;font-size: 24px;&quot;&gt;2-b&lt;/font&gt;" style="rounded=0;whiteSpace=wrap;html=1;" parent="CLgTZYgxBi5z5J0grJYt-39" vertex="1">
          <mxGeometry y="40" width="120" height="40" as="geometry" />
        </mxCell>
        <mxCell id="CLgTZYgxBi5z5J0grJYt-42" value="&lt;font style=&quot;font-size: 24px;&quot;&gt;3-c&lt;/font&gt;" style="rounded=0;whiteSpace=wrap;html=1;" parent="CLgTZYgxBi5z5J0grJYt-39" vertex="1">
          <mxGeometry y="80" width="120" height="40" as="geometry" />
        </mxCell>
        <mxCell id="CLgTZYgxBi5z5J0grJYt-43" value="&lt;font style=&quot;font-size: 24px;&quot;&gt;4-a&lt;/font&gt;" style="rounded=0;whiteSpace=wrap;html=1;" parent="CLgTZYgxBi5z5J0grJYt-39" vertex="1">
          <mxGeometry y="120" width="120" height="40" as="geometry" />
        </mxCell>
        <mxCell id="CLgTZYgxBi5z5J0grJYt-44" value="&lt;font style=&quot;font-size: 24px;&quot;&gt;5-b&lt;/font&gt;" style="rounded=0;whiteSpace=wrap;html=1;" parent="CLgTZYgxBi5z5J0grJYt-39" vertex="1">
          <mxGeometry y="160" width="120" height="40" as="geometry" />
        </mxCell>
        <mxCell id="CLgTZYgxBi5z5J0grJYt-45" value="&lt;font style=&quot;font-size: 24px;&quot;&gt;6-c&lt;/font&gt;" style="rounded=0;whiteSpace=wrap;html=1;" parent="CLgTZYgxBi5z5J0grJYt-39" vertex="1">
          <mxGeometry y="200" width="120" height="40" as="geometry" />
        </mxCell>
        <mxCell id="CLgTZYgxBi5z5J0grJYt-46" value="&lt;font style=&quot;font-size: 36px;&quot;&gt;66%&lt;/font&gt;" style="rounded=1;whiteSpace=wrap;html=1;" parent="1" vertex="1">
          <mxGeometry x="860" y="80" width="160" height="60" as="geometry" />
        </mxCell>
        <mxCell id="CLgTZYgxBi5z5J0grJYt-48" value="" style="group" parent="1" vertex="1" connectable="0">
          <mxGeometry x="1081" y="160" width="160" height="240" as="geometry" />
        </mxCell>
        <mxCell id="CLgTZYgxBi5z5J0grJYt-47" value="" style="rounded=0;whiteSpace=wrap;html=1;fillColor=#FFFF33;" parent="CLgTZYgxBi5z5J0grJYt-48" vertex="1">
          <mxGeometry x="-20" y="120" width="160" height="120" as="geometry" />
        </mxCell>
        <mxCell id="CLgTZYgxBi5z5J0grJYt-49" value="&lt;font style=&quot;font-size: 24px;&quot;&gt;1-a&lt;/font&gt;" style="rounded=0;whiteSpace=wrap;html=1;" parent="CLgTZYgxBi5z5J0grJYt-48" vertex="1">
          <mxGeometry width="120" height="40" as="geometry" />
        </mxCell>
        <mxCell id="CLgTZYgxBi5z5J0grJYt-50" value="&lt;font style=&quot;font-size: 24px;&quot;&gt;2-b&lt;/font&gt;" style="rounded=0;whiteSpace=wrap;html=1;" parent="CLgTZYgxBi5z5J0grJYt-48" vertex="1">
          <mxGeometry y="40" width="120" height="40" as="geometry" />
        </mxCell>
        <mxCell id="CLgTZYgxBi5z5J0grJYt-51" value="&lt;font style=&quot;font-size: 24px;&quot;&gt;3-c&lt;/font&gt;" style="rounded=0;whiteSpace=wrap;html=1;" parent="CLgTZYgxBi5z5J0grJYt-48" vertex="1">
          <mxGeometry y="80" width="120" height="40" as="geometry" />
        </mxCell>
        <mxCell id="CLgTZYgxBi5z5J0grJYt-52" value="&lt;font style=&quot;font-size: 24px;&quot;&gt;4-a&lt;/font&gt;" style="rounded=0;whiteSpace=wrap;html=1;" parent="CLgTZYgxBi5z5J0grJYt-48" vertex="1">
          <mxGeometry y="120" width="120" height="40" as="geometry" />
        </mxCell>
        <mxCell id="CLgTZYgxBi5z5J0grJYt-53" value="&lt;font style=&quot;font-size: 24px;&quot;&gt;5-b&lt;/font&gt;" style="rounded=0;whiteSpace=wrap;html=1;" parent="CLgTZYgxBi5z5J0grJYt-48" vertex="1">
          <mxGeometry y="160" width="120" height="40" as="geometry" />
        </mxCell>
        <mxCell id="CLgTZYgxBi5z5J0grJYt-54" value="&lt;font style=&quot;font-size: 24px;&quot;&gt;6-c&lt;/font&gt;" style="rounded=0;whiteSpace=wrap;html=1;" parent="CLgTZYgxBi5z5J0grJYt-48" vertex="1">
          <mxGeometry y="200" width="120" height="40" as="geometry" />
        </mxCell>
        <mxCell id="CLgTZYgxBi5z5J0grJYt-55" value="&lt;font style=&quot;font-size: 36px;&quot;&gt;72%&lt;/font&gt;" style="rounded=1;whiteSpace=wrap;html=1;" parent="1" vertex="1">
          <mxGeometry x="1061" y="80" width="160" height="60" as="geometry" />
        </mxCell>
        <mxCell id="CLgTZYgxBi5z5J0grJYt-56" value="" style="group" parent="1" vertex="1" connectable="0">
          <mxGeometry x="1280" y="160" width="160" height="240" as="geometry" />
        </mxCell>
        <mxCell id="CLgTZYgxBi5z5J0grJYt-57" value="" style="rounded=0;whiteSpace=wrap;html=1;fillColor=#FFFF33;" parent="CLgTZYgxBi5z5J0grJYt-56" vertex="1">
          <mxGeometry x="-20" y="120" width="160" height="120" as="geometry" />
        </mxCell>
        <mxCell id="CLgTZYgxBi5z5J0grJYt-58" value="&lt;font style=&quot;font-size: 24px;&quot;&gt;1-a&lt;/font&gt;" style="rounded=0;whiteSpace=wrap;html=1;" parent="CLgTZYgxBi5z5J0grJYt-56" vertex="1">
          <mxGeometry width="120" height="40" as="geometry" />
        </mxCell>
        <mxCell id="CLgTZYgxBi5z5J0grJYt-59" value="&lt;font style=&quot;font-size: 24px;&quot;&gt;2-b&lt;/font&gt;" style="rounded=0;whiteSpace=wrap;html=1;" parent="CLgTZYgxBi5z5J0grJYt-56" vertex="1">
          <mxGeometry y="40" width="120" height="40" as="geometry" />
        </mxCell>
        <mxCell id="CLgTZYgxBi5z5J0grJYt-60" value="&lt;font style=&quot;font-size: 24px;&quot;&gt;3-c&lt;/font&gt;" style="rounded=0;whiteSpace=wrap;html=1;" parent="CLgTZYgxBi5z5J0grJYt-56" vertex="1">
          <mxGeometry y="80" width="120" height="40" as="geometry" />
        </mxCell>
        <mxCell id="CLgTZYgxBi5z5J0grJYt-61" value="&lt;font style=&quot;font-size: 24px;&quot;&gt;4-a&lt;/font&gt;" style="rounded=0;whiteSpace=wrap;html=1;" parent="CLgTZYgxBi5z5J0grJYt-56" vertex="1">
          <mxGeometry y="120" width="120" height="40" as="geometry" />
        </mxCell>
        <mxCell id="CLgTZYgxBi5z5J0grJYt-62" value="&lt;font style=&quot;font-size: 24px;&quot;&gt;5-b&lt;/font&gt;" style="rounded=0;whiteSpace=wrap;html=1;" parent="CLgTZYgxBi5z5J0grJYt-56" vertex="1">
          <mxGeometry y="160" width="120" height="40" as="geometry" />
        </mxCell>
        <mxCell id="CLgTZYgxBi5z5J0grJYt-63" value="&lt;font style=&quot;font-size: 24px;&quot;&gt;6-c&lt;/font&gt;" style="rounded=0;whiteSpace=wrap;html=1;" parent="CLgTZYgxBi5z5J0grJYt-56" vertex="1">
          <mxGeometry y="200" width="120" height="40" as="geometry" />
        </mxCell>
        <mxCell id="CLgTZYgxBi5z5J0grJYt-64" value="&lt;font style=&quot;font-size: 36px;&quot;&gt;100%&lt;/font&gt;" style="rounded=1;whiteSpace=wrap;html=1;" parent="1" vertex="1">
          <mxGeometry x="1260" y="80" width="160" height="60" as="geometry" />
        </mxCell>
        <mxCell id="CLgTZYgxBi5z5J0grJYt-65" value="" style="rounded=0;whiteSpace=wrap;html=1;fillColor=#FFFF33;" parent="1" vertex="1">
          <mxGeometry x="1260" y="480" width="160" height="120" as="geometry" />
        </mxCell>
        <mxCell id="CLgTZYgxBi5z5J0grJYt-66" value="" style="group" parent="1" vertex="1" connectable="0">
          <mxGeometry x="1280" y="480" width="160" height="240" as="geometry" />
        </mxCell>
        <mxCell id="CLgTZYgxBi5z5J0grJYt-67" value="&lt;font style=&quot;font-size: 24px;&quot;&gt;1-a&lt;/font&gt;" style="rounded=0;whiteSpace=wrap;html=1;" parent="CLgTZYgxBi5z5J0grJYt-66" vertex="1">
          <mxGeometry width="120" height="40" as="geometry" />
        </mxCell>
        <mxCell id="CLgTZYgxBi5z5J0grJYt-68" value="&lt;font style=&quot;font-size: 24px;&quot;&gt;2-b&lt;/font&gt;" style="rounded=0;whiteSpace=wrap;html=1;" parent="CLgTZYgxBi5z5J0grJYt-66" vertex="1">
          <mxGeometry y="40" width="120" height="40" as="geometry" />
        </mxCell>
        <mxCell id="CLgTZYgxBi5z5J0grJYt-69" value="&lt;font style=&quot;font-size: 24px;&quot;&gt;3-c&lt;/font&gt;" style="rounded=0;whiteSpace=wrap;html=1;" parent="CLgTZYgxBi5z5J0grJYt-66" vertex="1">
          <mxGeometry y="80" width="120" height="40" as="geometry" />
        </mxCell>
        <mxCell id="CLgTZYgxBi5z5J0grJYt-70" value="&lt;font style=&quot;font-size: 24px;&quot;&gt;4-a&lt;/font&gt;" style="rounded=0;whiteSpace=wrap;html=1;" parent="CLgTZYgxBi5z5J0grJYt-66" vertex="1">
          <mxGeometry y="120" width="120" height="40" as="geometry" />
        </mxCell>
        <mxCell id="CLgTZYgxBi5z5J0grJYt-71" value="&lt;font style=&quot;font-size: 24px;&quot;&gt;5-b&lt;/font&gt;" style="rounded=0;whiteSpace=wrap;html=1;" parent="CLgTZYgxBi5z5J0grJYt-66" vertex="1">
          <mxGeometry y="160" width="120" height="40" as="geometry" />
        </mxCell>
        <mxCell id="CLgTZYgxBi5z5J0grJYt-72" value="&lt;font style=&quot;font-size: 24px;&quot;&gt;6-c&lt;/font&gt;" style="rounded=0;whiteSpace=wrap;html=1;" parent="CLgTZYgxBi5z5J0grJYt-66" vertex="1">
          <mxGeometry y="200" width="120" height="40" as="geometry" />
        </mxCell>
        <mxCell id="CLgTZYgxBi5z5J0grJYt-73" value="&lt;font style=&quot;font-size: 36px;&quot;&gt;0%&lt;/font&gt;" style="rounded=1;whiteSpace=wrap;html=1;" parent="1" vertex="1">
          <mxGeometry x="1260" y="400" width="160" height="60" as="geometry" />
        </mxCell>
        <mxCell id="CLgTZYgxBi5z5J0grJYt-74" value="" style="rounded=0;whiteSpace=wrap;html=1;fillColor=#FFFF33;" parent="1" vertex="1">
          <mxGeometry x="1460" y="520" width="160" height="120" as="geometry" />
        </mxCell>
        <mxCell id="CLgTZYgxBi5z5J0grJYt-75" value="&lt;font style=&quot;font-size: 24px;&quot;&gt;1-a&lt;/font&gt;" style="rounded=0;whiteSpace=wrap;html=1;" parent="1" vertex="1">
          <mxGeometry x="1480" y="480" width="120" height="40" as="geometry" />
        </mxCell>
        <mxCell id="CLgTZYgxBi5z5J0grJYt-76" value="&lt;font style=&quot;font-size: 24px;&quot;&gt;2-b&lt;/font&gt;" style="rounded=0;whiteSpace=wrap;html=1;" parent="1" vertex="1">
          <mxGeometry x="1480" y="520" width="120" height="40" as="geometry" />
        </mxCell>
        <mxCell id="CLgTZYgxBi5z5J0grJYt-77" value="&lt;font style=&quot;font-size: 24px;&quot;&gt;3-c&lt;/font&gt;" style="rounded=0;whiteSpace=wrap;html=1;" parent="1" vertex="1">
          <mxGeometry x="1480" y="560" width="120" height="40" as="geometry" />
        </mxCell>
        <mxCell id="CLgTZYgxBi5z5J0grJYt-78" value="&lt;font style=&quot;font-size: 24px;&quot;&gt;4-a&lt;/font&gt;" style="rounded=0;whiteSpace=wrap;html=1;" parent="1" vertex="1">
          <mxGeometry x="1480" y="600" width="120" height="40" as="geometry" />
        </mxCell>
        <mxCell id="CLgTZYgxBi5z5J0grJYt-79" value="&lt;font style=&quot;font-size: 24px;&quot;&gt;5-b&lt;/font&gt;" style="rounded=0;whiteSpace=wrap;html=1;" parent="1" vertex="1">
          <mxGeometry x="1480" y="640" width="120" height="40" as="geometry" />
        </mxCell>
        <mxCell id="CLgTZYgxBi5z5J0grJYt-80" value="&lt;font style=&quot;font-size: 24px;&quot;&gt;6-c&lt;/font&gt;" style="rounded=0;whiteSpace=wrap;html=1;" parent="1" vertex="1">
          <mxGeometry x="1480" y="680" width="120" height="40" as="geometry" />
        </mxCell>
        <mxCell id="CLgTZYgxBi5z5J0grJYt-81" value="&lt;font style=&quot;font-size: 36px;&quot;&gt;106%&lt;/font&gt;" style="rounded=1;whiteSpace=wrap;html=1;" parent="1" vertex="1">
          <mxGeometry x="1460" y="400" width="160" height="60" as="geometry" />
        </mxCell>
        <mxCell id="CLgTZYgxBi5z5J0grJYt-82" value="" style="rounded=0;whiteSpace=wrap;html=1;" parent="1" vertex="1">
          <mxGeometry x="10" y="585" width="1200" height="160" as="geometry" />
        </mxCell>
        <mxCell id="CLgTZYgxBi5z5J0grJYt-83" value="1" style="rounded=0;whiteSpace=wrap;html=1;" parent="1" vertex="1">
          <mxGeometry x="10" y="615" width="120" height="60" as="geometry" />
        </mxCell>
        <mxCell id="CLgTZYgxBi5z5J0grJYt-84" value="2" style="rounded=0;whiteSpace=wrap;html=1;" parent="1" vertex="1">
          <mxGeometry x="130" y="655" width="120" height="60" as="geometry" />
        </mxCell>
        <mxCell id="CLgTZYgxBi5z5J0grJYt-85" value="3" style="rounded=0;whiteSpace=wrap;html=1;" parent="1" vertex="1">
          <mxGeometry x="250" y="615" width="120" height="60" as="geometry" />
        </mxCell>
        <mxCell id="CLgTZYgxBi5z5J0grJYt-86" value="4" style="rounded=0;whiteSpace=wrap;html=1;" parent="1" vertex="1">
          <mxGeometry x="370" y="655" width="120" height="60" as="geometry" />
        </mxCell>
        <mxCell id="CLgTZYgxBi5z5J0grJYt-87" value="5" style="rounded=0;whiteSpace=wrap;html=1;" parent="1" vertex="1">
          <mxGeometry x="490" y="615" width="120" height="60" as="geometry" />
        </mxCell>
        <mxCell id="CLgTZYgxBi5z5J0grJYt-88" value="1" style="rounded=0;whiteSpace=wrap;html=1;" parent="1" vertex="1">
          <mxGeometry x="610" y="655" width="120" height="60" as="geometry" />
        </mxCell>
        <mxCell id="CLgTZYgxBi5z5J0grJYt-89" value="2" style="rounded=0;whiteSpace=wrap;html=1;" parent="1" vertex="1">
          <mxGeometry x="730" y="610" width="120" height="60" as="geometry" />
        </mxCell>
        <mxCell id="CLgTZYgxBi5z5J0grJYt-90" value="3" style="rounded=0;whiteSpace=wrap;html=1;" parent="1" vertex="1">
          <mxGeometry x="850" y="655" width="120" height="60" as="geometry" />
        </mxCell>
        <mxCell id="CLgTZYgxBi5z5J0grJYt-91" value="" style="rounded=1;whiteSpace=wrap;html=1;" parent="1" vertex="1">
          <mxGeometry x="10" y="725" width="600" height="100" as="geometry" />
        </mxCell>
        <mxCell id="CLgTZYgxBi5z5J0grJYt-93" value="4" style="rounded=0;whiteSpace=wrap;html=1;" parent="1" vertex="1">
          <mxGeometry x="970" y="610" width="120" height="60" as="geometry" />
        </mxCell>
        <mxCell id="CLgTZYgxBi5z5J0grJYt-94" value="5" style="rounded=0;whiteSpace=wrap;html=1;" parent="1" vertex="1">
          <mxGeometry x="1090" y="655" width="120" height="60" as="geometry" />
        </mxCell>
        <mxCell id="CLgTZYgxBi5z5J0grJYt-95" value="" style="rounded=1;whiteSpace=wrap;html=1;" parent="1" vertex="1">
          <mxGeometry x="610" y="765" width="600" height="100" as="geometry" />
        </mxCell>
        <mxCell id="mzzmHDJJswK5GQx1aQZ7-1" value="" style="endArrow=none;html=1;rounded=0;" edge="1" parent="1">
          <mxGeometry width="50" height="50" relative="1" as="geometry">
            <mxPoint x="330" y="1040" as="sourcePoint" />
            <mxPoint x="570" y="1040" as="targetPoint" />
          </mxGeometry>
        </mxCell>
        <mxCell id="mzzmHDJJswK5GQx1aQZ7-2" value="" style="endArrow=none;html=1;rounded=0;" edge="1" parent="1">
          <mxGeometry width="50" height="50" relative="1" as="geometry">
            <mxPoint x="570" y="1040" as="sourcePoint" />
            <mxPoint x="620" y="990" as="targetPoint" />
          </mxGeometry>
        </mxCell>
        <mxCell id="mzzmHDJJswK5GQx1aQZ7-3" value="" style="endArrow=none;html=1;rounded=0;" edge="1" parent="1">
          <mxGeometry width="50" height="50" relative="1" as="geometry">
            <mxPoint x="280" y="1090" as="sourcePoint" />
            <mxPoint x="330" y="1040" as="targetPoint" />
          </mxGeometry>
        </mxCell>
        <mxCell id="mzzmHDJJswK5GQx1aQZ7-4" value="" style="endArrow=none;html=1;rounded=0;" edge="1" parent="1">
          <mxGeometry width="50" height="50" relative="1" as="geometry">
            <mxPoint x="570" y="1040" as="sourcePoint" />
            <mxPoint x="620" y="1090" as="targetPoint" />
          </mxGeometry>
        </mxCell>
        <mxCell id="mzzmHDJJswK5GQx1aQZ7-5" value="" style="endArrow=none;html=1;rounded=0;" edge="1" parent="1">
          <mxGeometry width="50" height="50" relative="1" as="geometry">
            <mxPoint x="280" y="990" as="sourcePoint" />
            <mxPoint x="330" y="1040" as="targetPoint" />
          </mxGeometry>
        </mxCell>
        <mxCell id="mzzmHDJJswK5GQx1aQZ7-6" value="" style="endArrow=none;html=1;rounded=0;" edge="1" parent="1">
          <mxGeometry width="50" height="50" relative="1" as="geometry">
            <mxPoint x="330" y="1200" as="sourcePoint" />
            <mxPoint x="570" y="1200" as="targetPoint" />
          </mxGeometry>
        </mxCell>
        <mxCell id="mzzmHDJJswK5GQx1aQZ7-7" value="" style="endArrow=none;html=1;rounded=0;" edge="1" parent="1">
          <mxGeometry width="50" height="50" relative="1" as="geometry">
            <mxPoint x="520" y="1250" as="sourcePoint" />
            <mxPoint x="570" y="1200" as="targetPoint" />
          </mxGeometry>
        </mxCell>
        <mxCell id="mzzmHDJJswK5GQx1aQZ7-8" value="" style="endArrow=none;html=1;rounded=0;" edge="1" parent="1">
          <mxGeometry width="50" height="50" relative="1" as="geometry">
            <mxPoint x="330" y="1200" as="sourcePoint" />
            <mxPoint x="380" y="1150" as="targetPoint" />
          </mxGeometry>
        </mxCell>
        <mxCell id="mzzmHDJJswK5GQx1aQZ7-9" value="" style="endArrow=none;html=1;rounded=0;" edge="1" parent="1">
          <mxGeometry width="50" height="50" relative="1" as="geometry">
            <mxPoint x="520" y="1150" as="sourcePoint" />
            <mxPoint x="570" y="1200" as="targetPoint" />
          </mxGeometry>
        </mxCell>
        <mxCell id="mzzmHDJJswK5GQx1aQZ7-10" value="" style="endArrow=none;html=1;rounded=0;" edge="1" parent="1">
          <mxGeometry width="50" height="50" relative="1" as="geometry">
            <mxPoint x="330" y="1200" as="sourcePoint" />
            <mxPoint x="380" y="1250" as="targetPoint" />
          </mxGeometry>
        </mxCell>
        <mxCell id="mzzmHDJJswK5GQx1aQZ7-11" value="" style="shape=image;verticalLabelPosition=bottom;labelBackgroundColor=default;verticalAlign=top;aspect=fixed;imageAspect=0;image=data:image/png,iVBORw0KGgoAAAANSUhEUgAAAmAAAAGzCAYAAACIKavMAAAgAElEQVR4nO3d2Xsb953v+U9VYeECriK12doXS15lx5FlJZ3uxMmT8/R0n5m5OnPVz/nz5tzMnHMx08mT09OJYjve2nYcW7IWa7MWUuIGEiSA2n5zUUChCgA3iSyC4vv1hCFAASBIs6o+9f396vuzViquEQAAADJj7/QbAAAA2GsIYAAAABkjgAEAAGSMAAYAAJAxAhgAAEDGCGAAAAAZI4ABAABkjAAGAACQMQIYAABAxghgAAAAGSOAAQAAZIwABgAAkDECGAAAQMYIYAAAABkjgAEAAGSMAAYAAJAxAhgAAEDGCGAAAAAZI4ABAABkjAAGAACQMQIYAABAxghgAAAAGSOAAQAAZIwABgAAkDECGAAAQMYIYAAAABkjgAEAAGSMAAYAAJAxAhgAAEDGCGAAAAAZI4ABAABkjAAGAACQMQIYAABAxghgAAAAGSOAAQAAZIwABgAAkDECGAAAQMYIYAAAABkjgAEAAGSMAAYAAJAxAhgAAEDGCGAAAAAZI4ABAABkjAAGAACQMQIYAABAxghgAAAAGSOAAQAAZIwABgAAkDECGAAAQMYIYAAAABkjgAEAAGSMAAYAAJAxAhgAAEDGCGAAAAAZI4ABAABkjAAGAACQMQIYAABAxghgAAAAGSOAAQAAZIwABgAAkDECGAAAQMYIYAAAABkjgAEAAGSMAAYAAJAxAhgAAEDGCGAAAAAZI4ABAABkjAAGAACQMQIYAABAxghgAAAAGSOAAQAAZIwABgAAkDECGAAAQMYIYAAAABkjgAEAAGSMAAYAAJAxAhgAAEDGCGAAAAAZI4ABAABkjAAGAACQMQIYAABAxghgAAAAGSOAAQAAZIwABgAAkDECGAAAQMYIYAAAABkjgAEAAGSMAAYAAJAxAhgAAEDGCGAAAAAZI4ABAABkjAAGAACQsdxOvwFAkmSkMJSCoHnbkjFGRpZkdvrNAcAWsSRLRpZlybaNZEmOI9l29G/YesZInmfJ8y2FYfQRBFJorPjfdwIBDDvCGCMT2goCKfCNjOm252FvBOAFYyQjS6ZxoilJvhf9k2UZOTlLjiNZdijLYh/4LIyRPN+W61ly65aCsDd/jwQwZCoMpMC35PvJDaI3Nw4AyJIxlnyvGchs5XKSkzOynZ1+Z7uD61qqu7bqrr1jVa3NIIBh2xljotDlaZVKVyQMjUzYqI5J0e3odHFXbEwA9jLTcTO12zLRcGM0BGnJstT4sGTblpxc55Rs35d835JlGeXyURijKpZmjFSr26pW7TUrXUFoouOIMQobxxTT+NpOHV+slYrLoQ3bxnOjHUi3eVxRCd4oDEwUulKPYScDYLcyHXdN4oaRpOaJpon2fzJGtmMrl7OUyzmynS7XyFlSLmeUL2z3+98dlldsVWtO1wBljFEQSmEQfW7m33VlGHAJYNgWvm/J94xM2xmJMc0NIqp2SZn+vQPAjmiFBJO436zAmNZHaBSGRrZjKZ93VCjmZNvpnaRlG+XylnK5vXn4rtVtrVRtBUHb8UWS7xuFjeDV6wcXAhi2VGgk343meSUZIwWBUeCbdbcJSuwAdjuzzrhWM4A1K2IdIcwYhWGoMAhV7Mupr78gp60q5uSMcgXJ3iO7zCC0VFm25brp30MzePl+53M6fjU9dHwhgGHLBL4lt57+WlzxCjr/zAhaAPaabsGsOTcpFcTaQlgQhOrrz2lgsCjbTgeQQjEKYy+yet3W0nJ6uLFb8IqPKrvg+EIAw5bwXCu+lFqS1Kx4hfHkB0mELgBoag9jcRAzRkamcWFSFMKCRhALw1ADpT4NDhZTz83lpXzhxTycV1YcVaut0GkUHV98vzW0a0m7InQlEcDwfIxUr1kKw8SXjOR7YepMheAFAN0lg1i3uWFhGDYuWIoqYUEQyMnZGh4ZUD7f6lFh21Kxb6OzzXufMdLiUk6u1/qBjCTXNfExZzcGryYCGJ6ZMZbq1XQT1TA08r3WnxTBCwA2piOImWgYsjU5vxnAohAWBIFGRgc1kKiGWZZRsT9qXbGbBYGl8qKTai0RhEael7iicZcfX+gDhmcSBpLrpvt6BX5rrhfBCwA2p7nfNCa6WMnIkm1FPRFDW7JTyzdHwWx+riLP8zUyOth4rqV6TSoUtGsbuPq+pcVKOnz5QRS+LL04xxcCGDbNGCsKX4lhR98LWyXhF2TjAICdYFlWK4QZS5Yt2fF0WjueVttsIrq0WJXnBZqYGJYagc11LRX7tOsqYUHQCF+NFhNGkucZBcGLUfVK6tLpDViDUTTs2AhbxkieS/gCgK3U3JdGnyxZVuPDjjrn244tx7Hl5Gw5jqPqSl1Tj+cVho0+Y2G0r+7WBLtXGaNo2DERvlz3xQxfEgEMm1SvWa1hx7bJ9oQvANg6HSHMtmRblmzbjj47thy7EcQcR/W6p+nH8/Hzo+HI3bNfXlzKxcOOycn2L2L4kghg2ATPTV/t6PuELwDYTmtXwuxWJazxUa+5qRAWhtG+u9dVVpzU1Y6e92KHL4kAhg1qLqbdum8YdgSADKRCWCOA2clqmNMMYo5sx1GlUtXsTDl+vu91rk7SS+qNxbSbPP/FHXZMIoBhXaFRqsN9srM94QsAtl8yhFmWZLUNSbaGIqMgNjezpMXFlfj5bj3al/eaILS0tOwk7kcNVl/08CURwLABvtu6bUxUGpYIXwCQpdY+t20oslkJaw5LNqpijx/Oql5rDV0k9+W9orJsx1NZjInaG0l64cOXRADDOnzfSpWuPTfcC9sFAPSs1FBkI4Q154TFVTDbkW1Zmno8Fz8v8C35PTQUWaunF9Z2myf3O/WGMkYAw5qSXe2TC2pT/QKA7LUPRSaDWKsKZsXVsJWVuubnluLnJ/fpO20lMe/LD1rzivfKWT4BDKvyXMkkl4Hwe2fDBQCkhyKj260hyGa7iunHc/L9QFK0T/d6YChyecWO+31JrWC4N6JXhACGrowxqVJ1MnxR/QKAnZOqgjXuJ5u0NueFNYclw9Bo5mniqkjfSq07mTVjpGqtNfHeD4xMM3rtoeMLAQxdBb4Vd1A2Jur5BQDoMe0hzLJkW7asxHCkZdl6Or0g121MyDc725aiVk9MvNferH5JBDCsItnzy/eNmpsG1S8A2HnJKyJlWY0QpsSE/GYQa4YwSzNPF+PnJ/fxWUv2/PL9vVn9kghg6CIMFC83ZIwU+lz5CAC9qDkMqUQFrL1FRXRfejo935oLZiyFQfbv13Wt1HJD3h6tfkkEMHSRLE0HgdmbWwYA7BbNYUhZrUatVucEfUman6vET9uJYch6ou1E4Js9fXghgCElmnzfuh+GoRh+BIDekx6GbH7qUglLfMzNJYYhfWU6Gd+YdADzE62N9uIwCwEMKSZs/UkYY3akRA0A2CyrMRTZpRKm5mdLy0tV1WqtPhTJff528/xk1/tG3689GLyaCGBICYLkbRNP7AQA9KbUPLBGNay98tWqkEmL5eX4uUGGJ9mu1za9pWGvHmIIYEhJ9vsKA+3dLQMAdpO20chmCIvDmJpBzFK53FqkO8sG2269ewDbqwhgaDGtqx8lKQjo/QUAu06zEqZ0CJMaFbCFSjz3y5hWz8ftZIziqx8lyQ84vyeAIRYm8lYY7O2rUwBgt4mvhGzdaXy91TlfVtQFf3m5Fj8vzOBc20sOP4YcXyQCGBKScwHCsHlKxBWQANCrUldCKn2zORlfzYW7m/tzWaqutCbiZzEPzGtvb5S0R48vBDC0JLaJsNX8HgCwG8RVr9YQZPuOvHmvVqu3vpjBEGSYGH7UDq5D2UsIYIglNxATsoEAwK5mJT+1qmGyJLfWWosoFY62SfJ7cHiJEMAQSzfkYwsBgN3MWvWOVK8neoFlUJFKDnPGJ/h7dOixiQCGWHJapGEMEgB2mc59dnPifTvPayWiLKbEh4bjSTsCGFpM15sAgF1k7agT/WvgJ0tS2/luOjEFLEIAQ1dsIACwi1nd7iZbQWTb5zF5TOH4EiGAAQCwxxCCdh4BDAAAIGMEMAAAgIwRwAAAADJGAAMAAMgYAQwAACBjBDAAAICMEcAAAAAyRgADAADIGAEMAAAgYwQwAACAjBHAAAAAMkYAAwAAyBgBDAAAIGMEMAAAgIwRwAAAADJGAAMAAMgYAQwAACBjBDAAAICMEcAAAAAyRgADAADIGAEMAAAgYwQwAACAjBHAAAAAMkYAAwAAyBgBDAAAIGMEMAAAgIwRwAAAADJGAAMAAMgYAQwAACBjBDAAAICMEcAAAAAyRgADAADIGAEMAAAgYwQwAACAjBHAAAAAMkYAAwAAyBgBDAAAIGMEMAAAgIwRwAAAADJGAAMAAMgYAQwAACBjBDAAAICMEcAAAAAyRgADAADIGAEMAAAgYwQwAACAjBHAAAAAMkYAAwAAyBgBDAAAIGMEMAAAgIwRwAAAADJGAAMAAMgYAQwAACBjBDAAAICMEcAAAAAyRgADAADIGAEMAAAgYwQwAACAjBHAAAAAMkYAAwAAyBgBDAAAIGMEMAAAgIwRwAAAADJGAAMAAMgYAQwAACBjBDAAAICMEcAAAAAyRgADAADIGAEMAAAgY7mdfgMAdqd7d+/pu2+/kyTtP7Bfb7/zthzHWfXxxkie62ppaUmu58Zft2RpaHhI/f39su3dc064tLSkTz/5VG7dVWmopEuXLqlQLOyq7xcEgb768is9mX4iSXrt9dd07PixrXi7ANZBAAPwTDzP08zMjCRpaHhIxnR/XGWpomvXrun2Dz+oXne7P0iSbdvaf2C/Xn31vA4dfkmO0z2MJYPfsePH9Nrrr637Xr/79jvdu3uv63NqtZrm5+fXfY1CvqDxfeOyLEuSFIahFstlVSrLkiWZ1X4BXfi+r3v37uvunTuqVCqSpNGREZ0+c1oHDx6Sk+sMspv9fq4b/a4LhdVDmjFStVqN/zt6nrfhnwHA8yGAAXvY9NS0fv+730uSTpw8ofcvX1YucfAvl8v6tz/8T1UqyyqVBvXBb36tkZGRDb22MdIPP9zSp3/5VEEQrPv4MAw19XhKU4+ndPToEV26/L76+vo6HpcMfgcPHdzQe6nX66s+p7xQ1h9+/4d1X6Pb7+dZPJme1od//jAKUm3v4969+5qYmNDln1/W6Ojopl878APduHFDV7+7quXl6PUHBwd14e0LOn7ixKqhFkD2CGAAtsXU1GN9/unncfh6+cjLOn/+nMbGx1UsFuNKkuu6qtfrunvnrr6/9r2q1aru3/9Rg6WS3v3pu/Hjugl8X/Vafd33Evj+1vxQz2ludk5X/nRFKytVSVKxWNDQ0JBCY1ReKCsIAs3MzOjKH6/olx/8UkNDQxt+7Vqtpk8+/ovu3/8x9fXl5WV99OFHmpp6rIuXLimfY7cP9AK2RADbYnpqOh7SOn3mtN67dKlrBaZQKKhQKOiNN9/Q+PiY/v3/+6PCMNT01LSq1aoGBgZW/R7Xrn2va9e+37L3fOz4Mb3703eVczp3jZZtPVf1KwhCff/993H4Onf+nN5+523l83lJUYD6/NPPdOfOXS0sLOj699f1k3d/smYAbTLG6NrVa3H4sm1bIyMjCk2o8kJZkvTDrdsaGhrWG2++saHXBLC9CGAAtkUYhpt+jmXZchznmZ67FWzbVrHYt+mgtbK8rG+//Va5nCPHdnTy9GkNDPSnHlNdWdHTp08lSWNjY3rt9dfi8CVJfX19ev3NNzQ9Pa2Vlap+uHVLT6anJUVhKQiCOLy1W1hY0A+3bkmKqmp/94tf6PBLhyVJjx4+0p+vXFG97urG9es6cvSIxsbGNvXzAdh6BDAA2+LQ4UO6/v11eZ6nWzdvya27Ov/qeY2Mjqw5BNmsmk1MTqhY7JwDlnTixHGdPntm3fdy68ZN3blz9/l/qFWsrFTjCwNKpUEdOXZUUjqABWEQD4WOjo12/dkG+gc0MDiolZWq6nVX9frshr7/gx8fxOHs1ddei8OXFP13OHX6tK5+d1UrK1VNPZ4igAE9gAAGQFJ0Ndz01GPZiVYSy5VlBf76E+i7OXjwoH7y05/E88Du37+v+/fvb+i5R48e0YW3L6w7aXywVNKhQ4fWfb3Hjx5v6PtuJ8d25DTmX5UXynLdunK59PBqrV5TrZqeH5asgJXL5Y7qoOd5mm1cYJDP5zt+H5Zl6aWXX9LV765KkubmZhUEwZotQwBsPwIYAEmKr0DcKpZl6ezZs9q//4D+9O//rnJ5cUPP+/nf/VwnTp7Y0DylrZiEv7S0tKH3tZaJyQl98MEHKvYVV31M/8CAJicnVV4oa25uTjeu39Abb74Zh0zP8/S3b/4WXx156vTp1Byw5BWpSdHQ5IokaWBwoOuVowMDAyqVBlWpLKtcXpTv+QQwYIcRwABsq/6+PuUbvagGBwd16f33UlU2Sbp+7ft4Avng4OCGJ4lv9ST8MAxVr9cU+DlVa1VVG9Uoz/O0ML+g+bk5OY6ji5fe2/RrO46tU6dO6cf791Wvu/rmr9/o3t27OvzSSwrDUPfv3Y+/38jIsE6fOb2h30O9XletVpMUVcCS88qa8vm8CoWipOWOfwOwMwhgACR1vwJwcWlRV/54Je4p9bwsSyoNDaV6ifl+oFs3b23J6z+ve3fvxQ1bVzM+Pi7/GdtaHDh4QO9duqTPP/tc1WpV5fJiR2WwVBrU+5fff6Y+YKuxbVu2zZWPQC8hgAGQ1P0KwEK9oM10LGhf2kZSqhXCykpVV/54pW34y6SGAT/55BPlc+kqzsX3LmpickJSNLfsN7/9zSZ+srT+vvTk+MHS4Maf29+v0bFRNedlPYvjJ45r/4EDunXrpu7dvaf5uagL/9j4mE6ePKnTp0+vOZTZLlndCoNQQdg5Zy9ZJQPQGwhgALZM+9I27cIwXHfZn2ZYS0p20i8NlVQaKj3fG00YGxvrGuj6+/vjsGZZlvKFfGpIsFxefVml9QwM9OvNN9/Um2++uYnnDOhnP/+ZQmPkOI5yjaHGXC6nYmPeV3VlRbVaraN3Wr1ej6+SLJVKXZc6ApAtAhiALWNZUXCZmJjY2te1LT158mRDSxptlG1ZGt+3T319fRu6krLd8PCw/umf/1nGmEZA29jC2M1FyVvPi4Kd77faVDi5XFyJNMZobnYuXsB8qDSUCqCFQkETE/v0+NEjVWs1PX3yVOPj46nvOT01HV89OTY2phzd8IEdx1YIYMs4jqN3f/rulr9uvVbXv/3bv2nmaffK2rNoX9vSrbv65JNPVFmqbP61hkq6dOmSCsX1Q5hbb/0syfdw984dffzRx5Kkyz+7rNNnTkuKOuhfvXpVd27faf3b0OnUa7788stxD7Xvr13TgYMH4jlkc3NzunnjhqSotcXhw4cFYOcRwABIkubn5vW3b75JTdau1eqq1599qE2KKj7lhQU9+PFHPXr8WOWFcny1n9RaNufgwQN6+cjL2r//wI4MkRljVKlUVh0+XZMVPX+njI2P69jxo7p18weVy4v6/b/+TsePH5ck3b17N/5vePLUKY3vG1/rpQBkhAAGQFK0nM3CwsKWvubKSlWff/bZmlcWNueFzc/P69q17zU8PKSL772X6uZe7CvqH/+Xf1zzeyX7ZLVXtzarGQrX6pW1WmPUzahUlvU//u//seZjjAlTfcyaKwUk5XKO3rpwQYuLS3oy/UT1uqvr12+kHnPw4AG9/sbrrAMJ9AgCGIBt4dZdffzRR3r08JGkaHjy6LGj2rdvn0ZHR2U1Km3Ly8uan5vXo4cPVS4vanFxSX++ckW/+vUHmpyczOz91t163NR1YKBfv/iHX6wZ4FZrjLrV2qtyMzMz8v2gY73KwcFB/cMv/0Hf/PWvunH9ZhwMbdvW2VfO6K0LF1QsbvzqSgDbiwAG7GEHDh7Qv/zXf9mW114oL8Sd9UulQf3qgw8aLRy6C4Kf6MsvvtC1a9+rXnf18MHDTAOYMUbGZLsIeH9fn97+yTsaLA3q0cNH8XqSyfd0987d1CLcjx4+1OzMjA4cPNDxen19fbr43nt6+513tFhelJNzVCoNbXpxcQDbb+2F1gDgGZnQxFWYoaGhjtYI7RzH1mDi6j7P87SD06oy4eQcTe6f1KFDhzqqbcYY3bh+Iw5lhUJejuOoXnf1H1/8hxbXWNopn89r30RUaSR8Ab2JChiAbTEwOKDR0VEtLCzo8eMpXblyRefPn9P4vn2yrfS539LSku7fv6drV6NlhWzb1v79+zfVBHYrBX6gp0+exmssdvM8C5V3+z7lcqv/2eLiov7073+KFy8vFgv6xd//Qg8ePNS1q9c0MzOj3//u93rrwps6ceKk8oXO5YcA9DYCGIBtMTQ0pJ++91N9eOVDVatVPXr4KJ4PthbbtvXmW2/q6LGjGbzL7qq1WtwSYie+z9zcnGYb875s29ZPfvquDh0+rNGxMc3PzWlqalrValW3b9/Ry0eOEsCAXYgABmDbHDp0SP/5f/3PunXrlm7fvh0vu9NNf3+/jhx9WefOnV9zrthecOzYMe3fv1+3f/hBP33vog4ffklS9Dv6+1/+g/769de6d+ee3rrwlgYG+td5NQC9yFqpuC/4LAtsVHW5Nd6zsuzJtm1ZliXLEpeuo0NlqaKlSrSGYyFf0Pi+8XX/TsIwlOd68gNfS4tL6uvvU39fv2zHVj7/fFUcz/M0Nzur0Ji4y/3zvuZOii4KMLLt7lN1fd+X4+Sea5h2vS772B2iv5XocxiGCoNQfhDI93x5ni/X9eW5XvTZ8+X7voIg1MX3z8ev0T+4vVHg6WxrW1xe9qNjS+Nve68eX6iAAXgmz7Imo23bKvYVVVRRg4MbXwR7I/L5vA4cPLilr7mTopOf1Q9MW7GckGVZ2jex77lfB8DmcRUkAABAxghgAAAAGSOAAQAAZIwABgAAkDECGAAAQMYIYAAAABkjgAEAAGSMAAYAAJAxAhgAAEDGCGAAAAAZI4ABAABkjLUggRfc0tKSPv3kU7l1V6Whki5duqRCsbDTbytTQRDoqy+/0pPpJ5Kki+9d1MTkxI68l/YFyfP5vEql0pYsSL4Z7b+T115/TceOH+t4XK1W0/z8vCTJcRzt2zchx+HcHXheBDBgF1gsL+rOndubes6JEyc1PDKsMAy1WC6rUlmWLMkYk3rcvbv39N233z3X+zt2/Jhee/211NfK5bL+7Q//M/q+z+D1N17XOz95p+u/VatVPXr0WA/u39fy8opy+ZwOHDigo8eOanR0TO1rWBsTPWdmZkZSFD6y5Lmebt++rVu3bml2ZnbVx/X39+vI0Zd17tx5jY6Nbut7av+deJ7X9XHlhbL+8Ps/SJImJif0wQcfyHGK2/regL2AAAbsAtVqVX/9+ptNPefgwUMaHhle93Ge58UH4Wd18NDB53r+RhljdPPmTX3+6ecdIWrq8ZT++vVfdez4Mf304kUNDPRv+HVnns7os08/e6731i2EStLjR4/04Z8/UrVaXfc1qtWqbly/qVs3f9C58+f01tsXlM+tvZs2xmhudk6u527ofY6Pj6tYJEABO40ABuxx+XxeExOdw3Ge76m8UE59bWiopGKxr+Ox6x3QR0aGdeGdt1UorD30eevGTd25c3fVf79x/YY+/+xzhWGYeE9DWllZiQPZvbv35Nbr+ru//4X6+jrfazdBEGxLCJ2bndNHH7bC19jYmE6dOaXJyUkNDQ3JUlSqcz1X8/Pzun/3nu7evacwDHX1u6sqFAp64803ZLWX9FLvPdTVq1d15/addd9jqTSoD37zawIY0AMIYMAucODgAf3Lf/2X1Ne+/I8v9e3fvpUknT9/Tu9e/OmaB+rVHDt+rGPujzFGX3/1tf628LfU1/cf2K+Lly6tW5Vply8UdPDAQRX71j7wP370eNV/K5fL+u7bbxWGoWzb1rs/fVdnzpyRk3NkjPT06RP95aOPVS4v6vHjKd27e0+vnHtlQ+/PcZyuIXQ99XpNS0uVVf/94cOHWlmJwtfRo0d0+ec/6xpCi31FDQ0N6ejRozpw6JD+8tHHkqQHP/6os6+c3XCQBLB7EMCAXcj3Ay0vt+ZWLSwsyHO9LZlc7/u+vvnrN7r63VVJUn9fnyzH1sryin64dVs5J6e33r6wqVDgua6mpqfWrYAtV1phxrbTE71nZ2bj+WQnT53UmbNn48ngliXt379fb124oCt/uiIpGvo7eerkhia2T0xO6B//6R83/PM03bp5Sx83wlI3yXlVQ8PD6/78krRv37j6+/pUrdXk+b58z5fW+FXnco7eu/SeLl682PXfV6oruvKnKyovlFUoFDOd6A9gdQQwYBdaLJc1PTUV35+efqKnT5/opZdffqbXMyYKP3fv3tX176/H4a5YLOjnf/93kqQrf/yT6nVX16/f0P37P+rc+XM6fuK4SqXSupW3cnlRf/r3P23qPZVKpdT9hYWF+Pbk5GTXK/HGxsdUKg2qUlnWSrWqMAilbcwbq01cbxofH49v37p5U8MjIzp54oScnNP18YuLi/r6q69VrdUkSaMjIyr2rx901wp2S0tLWllekRQNQT5PAJt5OqP/9n/+t00958TJE3r/8mXlVvmZgb2KAAbsMp7v69q1q/HQlhS1Nvji8y80WCppdHTjV889fPhQX335lcoL5Y5J7aXSoC69/74OHTokSfrlB7/Sxx9+pMXFJVWrVX315Vf66suvZNu2RkZG9Mq5V3T2lbNb80N20d/fmlRfqXQf9qtVa/HvxbbtZxqS3Yz1Jta/dORlnTlzWjdv3lK97uovH32sT//yiUZGRuQ46UCyvLycer2RkeENTcJfz8LCQhwUh4aHqYABPYIABuwinufpqy+/0g+3opYUL738korFom7/cFvl8qKu/PGKLv/88obnM42Njcu2rFT4KhYLOv/aq3rl7CupOVv79+/XP/3nf9aNGzd07btrcZUsDEPV6zVN7p9Mvfbw8LD+6Z//uQ5hmHMAACAASURBVKPtRd2t689X/hy3Y/jVB7/U5OT+jvfmtAWPiYkJ5fN5eZ6n+/fu6ciRI6leXvV6XTeuX48n6E9MTChf2Nmwkc/ldPHSJe0/cEBff/W1lpeXFYZh3FerG9u2deToEb377rsaLA0+1/cPglBPnjyJ7z9L77P+/n69deHNZ34PpdKQbHt7gzCwGxHAgF3AGGlm5qm+/OJLTU9PS4qC0ptvvalSqaSV5WVNTU1rYWFBv/t/f6eTp07o/KuvanR0bM3XHRjo14mTJ1Xs69PBgwd14MABje8b75h/1ZTL5fTqq6/q/PnzKi8s6NGjx3r65IlGx8Y0Ojq6oZYIruvKTwzdLS4tdYStdmNjYxrft08nTp7Qjes3VC4v6nf/+jsdfumw9u0bV61W1/179+MK0sjIsM6cPbPtFbCk4eHuLT8cx9ap06d08tRJlcuLmp6a0sLCQqofWLGvqImJCU1M7NPk5P4ta5RbXljQo4cPJUW/k+SQaLuPP/o4ns+W7ME2PDKsty5c2JL3A6CFAAb0uMpSRR9++GHcsVyKwtfln/9Mk5NR1enyz36mv3z8sR4/nlIYhrp18wcFfqBLP7u86uv6fqDA93Xy5EmdPHky/rrnrj2vqam/f0CnTp3SqVOnJElu3ZWR2XBLhKYvPvti3cf89j/9VgcOHtDb77ytIPD1w63bCsNQD358oAc/Pkg9dnh4SO//7LJGRkY2/B6agiDU7OyMgiCQbVka37cvrrrNzc4qNCbuBi8ZVasrG35ty7I0Ojqi0dHNv69nEQShbty4EQ/JvvTyyx3z6lZjjNGTJ0+2tGFt8vcJgAAG9LzSUElnzp7VzNMZhWGo0dHRjmHG0lBJv/zgV7p29Zq++es3KhYLeu3119ecP3T3zp01r+B7Fq++9uqWvl67YrGoyz/7uU6cPKmr313V9NR0HBJGRoZ15pWzOnP6zDMPPfqepy8+/0IzT2finlkjIyNaWVnRRx9+pEpludUNPpdTGLaGV5vDhb4f6C8ff7ypELoRzRC6UVOPH+nWzVuSosB+7PixNSuCyR5vuVwu/j1sleTvEwABDNgVjh47qsVyWROTEzp86HDXq+hyuZzeePMNnTt3TivVlfhAZ9u2hkdG1NfXv6ErFp+HbdtrtkR4VslAZVnS4cOHdfjw4U28L0uHDx/W8PCQpPSE/mcV+L6Wlpai95fPK5/rncrOwsKCvvj8i3g+3Lnz59adF/jGm2/q9JnTkqR6ra6HjaFLANuDAAbsAvlcTm+/87akqMJSr9UlSZZtdbQgyBfyGim0qgylUkm/+MUvZIyRZVnKNx5/8OBB/ea3v1nz+z56+CheJ/LEieM6ffbMmo/v7+uP38+zrF+ZNDY+rqNHj3b9t+SQ4EaGtqLhv1ENDA5I0pbMsaq79fi/w8DgQNwXrT3sSVIYGv14/8e4lcaRI0c0vq81P8/3A925fVsrK1Xl83mdPHVSfW1NazcaGufn53Xlj39SubwoSTp48IDOvvLKpoJ3oVjUr3/9644LKJ5H9LfXOyEV2GkEMGCXSQ4dbqTH0uLiYrwodnP4rNhXVGmopNLQ2nOClhMLaQ+WSnFLio14lvUrk15/4/VVA1hySHAjQ1vty/X89j/9Vn0Hn6+7vOu68cUGAwODcaiz7WjSfZLvB6pUKq0AdvRIXG2SoorT9PS0VlaqKhYLOnf+3DMN1T16+Eif/OUvccPakZFhXbz03qYrfpa1dkhtzh/0A19Li0saLA2qkC/IyeXo9wVsEAEM2MWaLSACf/VN2XVdbbSQUa1W9ejRY009fqS52XmVy621IL/927f68ccfNToyopePHtXhw4fWPLA/y/I+6y3t040x0c/YrEZ14wd+av3IrTAxMaH/8n/8F0nRWpLtfb2kdFBJfn/f91Pvt+7W42pT8uexHXtDk9aTqxc0v0+pNKj3L7+/qb5wa6lWq7r9w23dunkzrq51MzIyrBOnTur06TObWhAd2GsIYMAudu/uPd27e++5XycIQl3//nt99eVXa175Vl4oq7xQ1r179+U4jt5+5229cu5c1670z7K8z3pL+3SzvLysf/1//nVTz9lq3cKXtPqFDp99+pk++/Szrs9J/jzJdhDdGGN07+49ff3VV1pcXIq/PjExocs/v7xl4evunbv6/LPP1208K0WrHnz95de69t1VvXfpko6fOL4l7wF40RDAAOja1av68j++jO/vm9inQ4cOaXx8PG7GWq/VNTc3p8ePH2t2ZlZBEMQTvV9/4/WO15yemtbvf/f7zH6GZ9GsUDWtVolKVhGNMaq7q1fbNlq12gqWZalWq8Xhy7ZtnX3ljN66cEHF4toLn2/U/Py8vvi8Fb4Ov3RYp0+f1ujYqPr7WhWuaq2qhfkF3bp1S48ePlK97uqLzz/XyOiIxsbW7kcH7EUEMGAXO3jooF577VXZq1RgpGge11f/8WW8vmA7t+7qwYNWL61Lly/pzJmz6jZnu1nNuHvnrj7884dRL64HD3T27Nktax66Wf19fXr7J++s2TU+DAJ9991VTT2eSn19rVYcq1XWZmdm9d//r/++6vdKVq2OnzihI0eObOTHiN25c2fV6lg3p86c1uzsjMrlRV14+4IOHTrc9b/ds5qdmY17iR09elQ/+/nPuk6mL/YVNTo6qiNHj+rTTz7RrZu3tLJS1ezMLAEM6IIABuxi/f39OnDw0JoTn8vl8qqLP0tRRac5byifz2tsdGzdA3hpqKRioaBqrSbf9xWEazfs3EhQbJesrqzFyTma3D+55qR13w90e4v7cm1ELudselJ6bpNrP+ZzOb1/+bIsy8q08/9qQhOmqopbeSUl8CIhgAG72PzcvP72zTdrrrVXq9VVr6++NFAun9f4+Lhmns7I8zx99OGHevX113To0CEV8umqluu5evz4sa5++11cUZuYmFChsPZwV7FY1OjYmHLO5nY5YRiuuixSU73u6vtr33e0bUi/jtH8XOf6ixOTk+u24tisjQbHrbTe7+h5TO6fVKk0qEplWffv39fKH1Z05swZjY+PpzrrVyoVzc3N6ebNm3ED11JpUPsPdK7zCYAABuxqCwsLcWuDZ+U4tt668JYqlYoePXykxcUlffLxJxt67uGXDuutC291nYSf9KwXC2yk+7vnebr+/fVNv7akTJcG2q1GRkZ08b2L+svHn6harWrm6cyGOuT39/fr4nsX6XwPrIIABkD9/f365a9+pcePHurq1Wt6Mv1k1bYNtm1r/4H9evXV8zp0+KV1wxd2v5ePHNH/9r8f1O3bt3X79m3Nzsyu+vexb2KfTp06pRMnTsQXcADoZK1UXAboIUmqLreGsVaWPdm23ZhXop6YW4LsGGPkuZ4839PS4pKMjEqlkoqFovKF/Ib+HsIw3PDC3qvJF/LbOrzWiypLFS1Voqsa+/v6NTq2Na0kunFdV6axnuVmmqg2/z6S87uane7ZV2TPGCNjWvM5wyCUHwTyPV+e58t1fXmuF332/GjeZhDq4vvn49foH9zeKPB0tnXhxvKyHx1bGtv2Xv2boQIGoINlWSoUCyoUCxocXP3qwrXYtk0F5BlsZIWCrdK+jNVGNf8+ADy7vXVqCQAA0AMIYAAAABkjgAEAAGSMAAYAAJAxAhgAAEDGCGAAAAAZI4ABAABkjAAGAACQMQIYAABAxghgAAAAGSOAAQAAZIwABgAAkDECGAAAQMYIYAAAABkjgAEAAGSMAAYAAJAxAhgAAEDGCGAAAAAZI4ABAABkjAAGAACQMQIYAABAxghgAAAAGSOAAQAAZIwABgAAkDECGAAAQMYIYAAAABkjgAEAAGSMAAYAAJAxAhgAAEDGCGAAAAAZI4ABAABkjAAGAACQMQIYAABAxghgAAAAGSOAAQAAZIwABgAAkDECGAAAQMYIYAAAABkjgAEAAGSMAAYAAJAxAhgAAEDGCGAAAAAZI4ABAABkjAAGAACQMQIYAABAxghgAAAAGSOAAQAAZIwABgAAkDECGAAAQMYIYAAAABkjgAEAAGSMAAYAAJAxAhgAAEDGCGAAAAAZI4ABAABkjAAGAACQMQIYAABAxghgAAAAGSOAAQDwojHd7pouD8ROIYABAPACWTtmmY08aFsRAyMEMKyBzQQAdo/OfbYxzf9DryGAAQDwAjKr3ukRezwYEsAAAHgRpUYbTaMa1vzCTo5B7u3g1UQAQ3fxRgoA2BUS4crEO3DT8RD0BgIY1tE4d+KMBQB6TmvfnNhHx5WvVtXLJKpeptdi2B49vhDA0JXpvU0UALCGKGuZ1ghjIohJ6Qn5O71/3+nv3wsIYAAAvEiMSYQu06iAJYLXjqef3giBO40Ahu66Tx8AAPSixD67GbKS4SsajjSNcKYd3bfTGiNCAENXRq0Nle0EAHqXiUNXo/LVDF2Jj+aQZOpxPaJ33km2CGDozuzdjQIAdp9WZas5+d7E1a9WFay5b7esnXyrJg6Ce/kMnwCG7iypVf7iSkgA6DWpKyDjCpfpqH6lPhqjG7ad7eE/FfgsdQavPXh8IYChxUrfTF1NAwDoTXH+aqt8NT/C5u1WRSyXc1rPz7gaFoUxs+fbTRLAELOSm4LVnMDJPDAA6FWp+V/tH6FRaNrCVyP1FPK5+DWsDGKQbbW+h2V1TsTfi4cYAhhiVqJG3NxA4nF6hiEBoGekhx9bJ8ombASv0Cg0Yet2GLZOqo1RvpiPX8vKYEKYkyy4WVbi4oDEPLA9dnwhgCFm28kzlNYGwjAkAPSo5vBjovIVBa+wEbyMjAnTV0RK6utrBbDkvn+7JL+HbSvVEHavdj0igKElcRJk21Zi3kB6GJIqGADsnLipanv4agau5tBjo/LV/Fq0T48e39dfbL1gBnPA0if4dmcFbA9WwQhgiCVLxLZjt03e3OvTJQGg13SbaB9GoStofO6YCxaFsIHBvvhVkvv+7ZLPtY4fTs6O32t8gh//RHsHAQyx5FXJ+bwTbchtG23rzGsvbSYA0BtS1a/G0EQ07NiqdoWJeV9hEEZDkok2FLYtDSYCWBYdKfL51jEj59hR+Ar3dhWMAIYWS7ISV6rkck6ibN3qprxHtg0A6Entwas18T5UEDQ+wkBBGKaHIBv779GxoXjivWWZTIYgLUtyEsOQ0Un+3q6CEcCQ4uRaW2Iu77RtvOmhSKpgAJCd5JWP7a0mWtWvxBBk0DYnrJHARseH4tdM7vO3W6GYPMG3oyszExcJ7LUqGAEMKcm5APlCTkHbPIJkoz+JEAYAWWgfejRKh68gWf0KktWvMBF0otcYGS3Fr5vF/K+mQmIYMl/Mp99bGCZGWhJLFb3ACGBIsewwvp3L2XIaZynNEBYmxuwJYQCw/ZLhKx56TFa+gugjCAKFQZC4H3ZMwB8aGVR/fyF+7eQ+f7vlc2G8JJFj23EVLAyTc9TahiJf4OMLAQwplmUp12qQrGIxH1XBgvRZVNgYiiSEAcD2SYWv9qHHsBW0un20V7+MkSb3j8Svnctl04S1ybKkYqEV+AqFnMIwaLzHsDExP1EJ04sdwghg6OAkLhfu78+3NubkBt3YARDCAGB7dISvZNXLmCh8hYlhxyCQHwSp8BUm5u9altHE5Gj8+sl9fVaSAayvv5A6roRtV0W+6CGMAIYOttO6GtJ2bA0MFhNX1rRNyieEAcCWW7vyZVqVL78RvvzodmsoMoyXI2oOQR5+eTJehNuyjOwM5381FQomvhrStqPjSxgEjUpY0Ojgn142KfoN6IULYQQwdJVrrVKhwVKfwjBobdRB62wlJIQBwJbqWvlq6+3VrHhF4atZ+WpVv4LE8GP0QpYOHt4Xf4/kPj5r/f2tKtjAYJ9MmD627JUQRgBDV06u1Rsml7M1MNgXb9zJ+QXJJS/aJ+YTxABg41JznxoT7pMnuqk+X80Q1gxffiKQBZ3tg146Oqm+vsbke2tnhh+b+oqJyfiOo/7G8aVVCYvmg3WEsOYk/eSl+LsYAQxdRZPxW3/gQ8P9CgMj3w/SQSwRwtq75ksEMQBYT3vwai2q3bzisbPNhO8H8v0w2icnhyGbQ4/N9kFGchxbL708EX+/XM5kOvm+nWVJ/X1BfL80NNCogjVGWhoVsWYlLD62SOlFvHd5EMut/xDsVfmCFARGJrTkOLaGRwe0ML+ceETrD982lizbkm1bkixZkoys+CynuXPZyY0eAHpJ+8lpss2EUaKJanNIsRHAovAVyPf9xO3ENJHUlY9Gx08eVj4fHe4t2yhf6PJmMjY4EKru2goCS7Zta2hkUIsLlegfjaTG/DRLki0jWXaU3Jod/CXJsuJQ1ry/mxDAsKZc3pJXj24PjwyoUqnJ9wJFc76c6OzKGBnHlt0oqDa3kdam0BnEosftro0FAJ5XtxGBOHipVf0ybX2+Ulc6+kFH8GpdJJUOXyOjpba5X9HpcS8Y6A+1VImSVmloUCvLNfmen+oDZhsjGVuWLdm2JSM7tXJS1yDW+FqvI4BhTbmcURhIgR/9MU9MDuvB/adSI3ylrtBxjIyxZVuNaphlyViN8BXNAdVqYSyJYAZgt1tv6kVz39n4X2L6xmrhKzHnqy18+X6QWnqoOXfKknTqzEvx93RyJtXncaf1FUPVXUuuG528j+0b1tSDp6njipxozchWEEtUwxJSQUyKhyY7jiY9dHzpof8U6FW5ghT40e1CIafJ/SN6Mr2Q2GE4chzTqIQZGduWbSwZ25JlJT6aL5gIY1Ln9sCcMQAvmtZurb29RJfwlVjTsWv4ak6690P5jWHHIEj30jJGeuXVoxoYLMbvIdcDQ4/tSoOh5j1bxkj5fF7jk6OafTIvKTqeyBjZjhMPzdqNEGZZdnSy3iVQJatgHUeTHjq+EMCwLtuSCkXJbQxFDg0PqF73tDC/nNh5tM5SHDsKYZax4mpYK4SZqCpmpMb/JQJZUu+cpQDA5piOuyZxozlc1m3IsXPOV2uSvR+EcQiLr3ZMhq/ERVBHj+/X5P5W09VCMdqX9xrHNhoaDLTYGIocLA3IdT0tLixFJ/W2iae5WPFxxpZlmcaxJQpiRlo1kDVt6MfPsEJGAMOGODmjXGjJ96L7E5Mj8txAlaWqQmM3zthsOaEj4xjZdijbthXaluzQToQwNYJYNEmsGcia+6vWmUtyB9aDew0ASDEdN1MxLL6Kr7GQtklUvxoNU5OtJlLVr9TV59HVj2Fzwe0g3ZPRGKP9B8d09PjB+Fvn8jvbdmI9xWKo/sBStdoYihwfke96Wq5U5TitypfdOLk3ti0rPsk3cfBqHmOMGveb1a7NhKoMK2TWSsXt3f8q6Dn1qqWw0UPPGOnBvSdaqdaVcxw5ji27+dm2G5+jMxS7GcCSQSwOYakZ+x33AWBXaYSsjvtx+GoFr7jdRGP4MB2+gkQAa3W4bwWvZsuJ1hDm+L5hvfr68XgfattSsX93HObLizm5XvTGjaSpB9OqVWtyHEe27ch27OhzI4BFn1tVsFQQk1pXTCamvMS6zSHLGAEMm2OkWlUyJvpzDUOjB/efaGW53ghgdmNjseXYtmzHijcS21qrEqZow5FS88OayGMAelWX6xoTw47NflXrV77SASxou/oxTIevxiT95ELb4/uGde61Y412QNFyQ3392jU7UGOk+YWcgrBxfDFG0w+mVV2ptcJXWwhLH1ua88KiE/n4gq41ji3dv5INAhg2zRhL9ZpkEpWwhz8+1WJ5OQpgdiOI2Y5s22psMG2VMCsdxCSlNhJrtU1il+xIAOwBqxw9TSJ9tRqsdk64jypXYby2YxgaBWG6ypWsiLUqXulWE8ZI+w+O6ey5I/F7sGyp2Nda13e3CAJL5SVHQdCqhE0/fKLlpUqj6hWFL9uxG8eURjXMsqT4+GInRlmaYbR5nFnj+JIxAhieSRhIrmvFIUySph/P6+mThUToaoSx5llKRxUsUQnrtnEwEglgFzHx/3WGsI4Almg1YZJXPSbmdbVCVzp4JVcdkTE6evygjh4/EL8Py44Wvd6Jxba3gu9bWqy0QpgkzT6Z1dzMfGr4Ma6CWa2T/I6hyNZZfWJ6S6KZ6w4igOGZGWOpXjXxcKQkLcxX9OPdacmy4rMUu3nbbvUHs9o+lKiEtY/X91DbFgDoKj13O70cWzz8mKhata54bC0bFHapcsX3TXq40Rgjy5JeefWYJiZH4u9sWUbFfmvXVb7aBYGl8qITD0dK0mJ5UVMPphpBKz0HbPUA1hm+Whd7Jb9j9gcaAhiej5HqtdbEfEmqVV09uP9Uy8vVuOLVdQjSjjaEbhvJbupmDACSUusUpibeN5YWWmvyfXM+WEelK/nYRsXLGGlktKTTZw+rf6Av/va2LRX7zM6XdraIMdLiUmtiviS5bl1TD56oulxtC1/JOWDpURYl5hvHAWyHw5dEAMMW8dxWiwop2nBmnizo0YOZ6EytsYHYtp0aduw2YdJKnp60X7iSyU8DAOvrbPLZ+mqyApYKYonhyKhjveJ5YO39wNKPj55j27ZOnDqkg4f3pc5Pc3kpX3gxD+eVFSduUSFFv+GFmXk9efykUQlsn9pipUJXdGyx0scW7fz5PQEMWybwrbhZa5PnBZqemtOTqTlJXeZ+pTaQ9PBj58ZB/ALQa9KH0GTH+67DkF0m47dPqG8PXUZGloxeOrJfL708qXwh3cKzUOztPl9boV63tbTspIZ6/cDX3PSsZp/Oqnl8aQav9spX+/yvXphjTADDlgqN5LuttSOb6nVPT6bmNf14Lj3UmOjXkurbEv9f0k5vLgDQbrWu90o0X129CavaQ1fz8XHwkg4fmdShw/vU15deS8jJGeUKvdnhfjsEoaXKsh2vHdnkuq7mns5p9smspOQJfVvlK7kkXvSFrjezQgDDtvB9S75nZEKr7euBZmcWNfu0rMpSdZUeYG2XCe+RnQuAXSzVd7XVCr8ZqFqfWksQtc8TkxSHsOHhAU0eGNPk/lHlcunLGS3bKJe3lHvBq16rqdVtrVTt1FWSkuQHgcpzCyrPlbVSWU4ELitZ+FJPlL9EAMM289wojHXrl1Or1lVeWNbCfEXlhUq0cyJ3AdjFTJc7qZYUbetBNj9ZljQ6PqSxsZJGx4bUP1BUB0vK5YzyPbio9k5YXrFVraWHJZvq9boq5YqWFhdVKS81HtMexHYWAQzbzhijwI8m6SdbVrQ/ZmW5rmq1rlq1rlrNVb3uyfN8+V6gwA+yXKILADatffmhJMuy5Di2nLyjYt5RoVhQsb+g/v6i+geKGhzsa/VDVPtzTbye42qP2auMiSpi1aqdalmReoyMatWa6tWa3Fpd9borz3Xleb4CL1AQ+DtyfCGAIVNhEM0P8/2dficA0NtyuSh07daGqllzXUt111bdtXfFCTsBDDsiuvLHVhBIgW9WrYwBwF5hWUZOzpLjSJYdUu16RsZInm/L9Sy5dWvVythOI4ChNxgpDKUgaN62GpNRu88fA4BdyZIsmUZfxKhpquNETVR7YmLSC8gYyfMseb6lMIw+gkAKGyf+O1UtI4ABAABkzF7/IQAAANhKBDAAAICMEcAAAAAyRgADAADIGAEMAAAgYwQwAACAjBHAAAAAMkYAAwAAyBgBDAAAIGMEMAAAgIwRwAAAADJGAAMAAMgYAQwAACBjBDAAAICMEcAAAAAyRgADAADIGAEMAAAgYwQwAACAjBHAAAAAMkYAAwAAyBgBDAAAIGMEMAAAgIwRwAAAADKW2+k3AEiSMZLnWfJ8S2EYfQSBFBor/ncA2M2saHcm2zJyHMm2jWzbKJ8zyudN/O/YYkYKQykImrctGWNkZEk7eGwhgGFHGCN5vi3Xs+TWLQUhex4AL7bmiWRgLAWhJKX3e45tVCgaFfJG+VxIIHtGxhiZ0FYQSIFvZEy3X+TO/3KtlYpLbQGZcV1LdddW3bWpagHAKixLKhZCFQuhCgV2lhsRBlLgW/L9nX4nG0MAw7YzRqrVbVWr9pqVriA0USgzRqGJnmcaXyOsAdht4t1WcwdmRcHKsowsy5JtKfrsWHLs1adkO7ZRf3+oviJVsXbGmCh0eVql0hUJQyMTNqpjUnRbRtrB4wsBDNtqecVWteZ0/QM3xigIpTCIPhuzwaIweyAAO20DR+2ORzSeYxq3TfO+MZJC5XK2HMdWLmfL7hLILEvq7ws0OBA+11t/UXiu5Pvd53EZE4WuMIh+z+n/XL1xDCGAYVvU6rZWqraCIP2HbiT5vlHYCF6EKQB7RjKANe4nw1j0EcqERrYj5fM5FYo52W37SccxGmhUxPYi37fke0ambUTFmOYJfVTtknr7EEMAw5YKQkuVZVuumz57awavbmPzHdtHL28xALARbRWyrgfaZABrfk6EsDAMFYahin059fUV5Djp/WqhEKo0GMqx98ZhPDSS70bzvJKMkYLAKPDXv5LU6qHjCwEMW6Zet7W0nB5u7Ba84j//HtoQACAT7VWwxteSQSy6ii+MP4dhKGMCFfvy6h8oyrZaQcyypKHBQMUXvBoW+JbcevprccUr6IwxvRS0VkMAw5aorDiqVls7BaPojMT3U/NPCV0A0NQMXu3324Ykw9AoDAOFQSiZUP2DRfUP9KVGD/r7Q5UGgkzfflY8N5pkH2tWvEKTSrK7IXQlEcDwXIyRFpdycr3WH76R5LrRPC+J4AUAa+oWxOKr9dKVsDAMFASBco6j4dEBOY4TP62QNxoe8l+c3a2R6jUrPpZI0THH98LUSMtuC15NBDA8syCwVF50Uq0lgtDI8xJXNO7SDQMAMpcMYonhSJloPlh7CAuDQCOjg+rr74tfwrGNRoYDOc7uPrQbY6leTTdRDUMj32v9XLs1eDURwPBMfN/SYsVJXeXoB1H4IngBwHNIBLFmADPNEGZChUGoMIhCWOD7Ghzq19DwYPx0xzEaLgXK5Xbn4T0MoqbdJlH5CvzWXK/dHryaWIwbmxYE6fBlXaJHowAABQ9JREFUJLke4QsAtoRlxfO7rKhza9Sw1bZlWVGPMNtx4o/K0ormZxfi0Na+j95NjLE6wpfvhS9c+JIIYNgkYxQNOybDl2sUBIQvANgya4WwxkcziDm2o+qKq5npOYWNyVHNKSK7ahURo2jYsRG+jJE8N2zNJ37Bji8EMGzK4lIunvOVnGxP+AKALbZKCIuCWBTG4hDmOHLrnman5+KnB6GlxaXczrz3Z1CvWa05X22T7V+08CURwLAJlRUndbWj5xG+AGBbdQthjaHIuApm27Kd6KNeczXzpBXCXM9SZcXp/to9xHPTVzv6/osdviQCGDao3lhMu8nzGXYEgEwkQ1jzo2NI0pFtO7IdWyuVqhbmFuKnV6u26vXePdw3F9Nu3Tcv7LBjUu/+F0HPCEJLS8tO4n7UYJXwBQAZaYawxDBkFLwSQ5G2HYewhbklVSrL8dOXltMtg3pFaJTqcJ/sbP8ihy+JAIYNqCzbcSnYGMl1G//wgm8cANBTmvvc1HywVUKYbWvm8VO5jR22MdG+vNf4buu2MdHUFunFD18SAQzrqNXTC2u7zY1jp94QAOxh3Yci7URFrDUnTJatmenZ+Lmua6vWQ0ORvm+lFtb23HBPndf3zn8J9KSVxLwvP2iNy++prQQAekVbFSyuhCWqYFaiX1htpa7FhXL89OQ+faclu9onF9TeC9UviQCGNSyv2OlO91S/AGDHrV0Fa7WoaM4Rm5meUxBEC3UHgaXllZ0/9HuuZJLL2Pm7qWHZ1tj5/wroScZI1Vpr4r0fGBklzrwAADujaxUsGcSi4NW8bYzRwux8/PRqbWcbtBpj5Pvdw9deqX5JBDCsolZPTLwX1S8A6CXtVTCpbTjSshuVsOhrczML8ryo14Mx2tG5YIFvSYkLu3w/XPsJLygCGLpK9vzyfapfANBTul4R2boyUokKmGVF+/NUFWwH54Ile375vlEcIffY8YUAhg6ua6WWG/KofgFAz0ntkxvDkJ1hrPUxNzOvIIiqTUEYLXqdtTBQvNyQMVLo760rH5MIYOhQT7SdCHxD8AKAHpYchoyWK1JrUn5jSNKyLMlYqSsik/v6rCTbTgSB2dNn9gQwpBiT3ij9xKXBe/Y0BQB6Ufs+udEt31KrGta4EVfIFucX44fXXTvTyfjR5PvW/TAMtVeHHyUCGNp4frLrfaPv1x7cMABg12jOA2vctiyrEcISH40QtrK8kuqO7/nZxQATtr6XMUZhkNm37kkEMKS4Xlt5uIEIBgC9Z9V9c6o1RfTAZn1seakSPyy5z99uQZC8bdQs0u1VBDCkuPXuAQwA0ONSE/GlRuqKq2KNIpgq5UQAq2cYwBL9vsJAe/7MngCGmDGKr36UJD/Y89sHAOwKVuJWqy9YYz5Ya2aYJKmyWJFpNOIKQiubeWCmdfWjpPhqzL2MAIaYlxx+DLn6EQB2E6vthhVXwFpz8WVZMsaoulKLn+dlMAwZJvJWGHB8kQhgSPDaLw9O2ssD9QDQq7rum1vBK9mkIlkdqycDmL/9+/fk/K8wbB5f9u4VkBIBDAlhYvhxRxcKAwA8l9awY+sryZtu3Y3vpvb92yVxSAlbze/3NAIYYsmNMCR/AcDu09EbrHNoUlLcikLKJoAlv4fhACOJAIaEZIk43kD2aGkYAHaVLvvqZPCy4iAW/b/ntQJYkEE/LpMaVSGASQQwJISGsAUAe4HvtlrSZ7HvT067N4xBSpL+f7hwj73esbgPAAAAAElFTkSuQmCC;" vertex="1" parent="1">
          <mxGeometry x="220" y="1000" width="608" height="435" as="geometry" />
        </mxCell>
        <mxCell id="mzzmHDJJswK5GQx1aQZ7-12" value="" style="shape=image;verticalLabelPosition=bottom;labelBackgroundColor=default;verticalAlign=top;aspect=fixed;imageAspect=0;image=data:image/png,iVBORw0KGgoAAAANSUhEUgAAAjkAAAGFCAYAAAAfC+L+AAAgAElEQVR4nOzdWVvbSPo28LtKu3cDBkLS05Oe/xzMwXz/DzJn817XdKc7C2Dwvmmreg9kyZItbwkhxNy/qzthsWXZAXTz1FNVYjYJNIiIiIhOjPzRJ0BERET0PTDkEBER0UliyCEiIqKTxJBDREREJ4khh4iIiE4SQw4RERGdJIYcIiIiOkkMOURERHSSGHKIiIjoJDHkEBER0UliyCEiIqKTxJBDREREJ4khh4iIiE4SQw4RERGdJIYcIiIiOkkMOURERHSSGHKIiIjoJDHkEBER0UliyCEiIqKTxJBDREREJ4khh4iIiE4SQw4RERGdJIYcIiIiOkkMOURERHSSGHKIiIjoJDHkEBER0UliyCEiIqKTxJBDREREJ4khh4iIiE4SQw4RERGdJIYcIiIiOkkMOURERHSSGHKIiIjoJDHkEBER0UliyCEiIqKTxJBDREREJ4khh4iIiE4SQw4RERGdJIYcIiIiOkkMOURERHSSGHKIiIjoJDHkEBER0UliyCEiIqKTxJBDREREJ4khh4iIiE4SQw4RERGdJIYcIiIiOkkMOURERHSSGHKIiIjoJDHkEBER0Ukyf/QJEGmtf/QpEBF9F0KIH30KrxpDDn1XDDBE9Jod8jOQQej7YcihJ7f/m5rf0ET0Wm3+fMz/zGTgeVoMOfRkysNN+Tes1np31OH3ORH9bHb8fqeRBpiyH26rO6Y/Rxl2ngZDDn2TfcFmI8ws31n//t04Dke5iOgnlw8qyVvLH2y5n28a64Em+SSrO0+DIYe+yma4yX0zC0BKASEBKSWEEJBSAEJshBsiop+V1oBWKvlbA0opqFhDqeTtkntkb6XBJQs/en/gYdhJXucwFAgjAaWS/+MYUFpkn89jyKGjbAs3hikhDcA0JITkNyIRnT4hAGHkV2JZva1ihVhpxJFCFJYFntQqwGwPPK837GgNhJFEEAoEvkCsjnvuYjYJODBABykGHAHDSMKNaRk/7JyIiH4GURgjDBTiKM7qOYXhLCGQDzwAtoad9fueoiAQ8AMJP5Ab1ZljsJJDe61Xb0xLwrIMVmyIiA5kWgZMy4CKDYShQhBEy55FAV3ahKhX1R2tN8LOKVZ1tAYWvsR8LndWbGKlk+CjNZROhw11NmyYx0oObbVeuTEtAcs22VdDRPSNlNII/AiBH+X6c5LAk71fUt3R+jQrO9OZxHxhlFZttNaIFaDi5G+tD5yAKwRDDpXLBxzDlLAd46f/JiIiemmU0ljMw2Xfji4ZwlqFnfwwFk4k6Cx8idlcIo6L564BRNGyiTvWm1NyD8SQQwWFaYtSwHYMGAa3OCMi+p7CMII/jxDHOmloPiDs/MxVnVgJTKYSQVC8vqThJoo277PxrA54ngw5lMkHHNOUsF22bBERPaf5NEDgR9mSG3vDzk9Y1fF9ifG0ODRVFm6yZ/ANz4VXMQJQDDi2a8I0Wb0hInpuXtWGNCXm0yCZXSWwCjsaWZOyECJpXBYiLekgiQWr6eYvMehMZgbm89X1RQOI4yTcpJchAXxTsMljyKFclz7guBak8fK+MYiIXgvHMWFIgdk0hNY6mTkkACFWoSa3EURW2VkNX728oKM1MBqbCMLcivgAgiDpuwGeNtyk+Ov6K5cGHCkFXI8Bh4joJTAtA7W6DSlFGlmS/5Zr5yRvF6dNJ/lGI4kLad/Oj+9IiWOB/qAYcGKl4ftJwBFYhrPvEMgYcl6xfMBxPJPr3hARvSDSkKjWHUhDQCkNpTW0Usu3k/JHEnTSsLOcW50Fmx8fdKJIYDg2CuveRLFGEADQ3y/cpBhyXqmNgPNCSppERLQipUCt7iYVnWyYKhdqgGT4alnB2Qw66U2eP+jEscBoYmTTwzWAINQIw+8zNFWGIecVKvbgMOAQEb1kUgrUG27WbKzUajfz9eGrfNDR2dDV8ubPGHS0BoajtYATaMTx8wUcgCHn1cl/kTuuxSEqIqKfgDQkqjUnGbLSOtnxfDl8pdNZV2tBp9ijk3iuoDMam9kQVb7B+DkDDsCQ82rZrskmYyKin4hlG6jWHCTbNumsipP26ZQFnbKKzvc2mRmFJuMw/DEBB2DIeVXSBG+akuvgEBH9hFzXguOYy/4cterTWQ5jrQcdIJ8rvn8jsr/cYDMVRs8/RJXHK90rkfXhSMGVjImIfmLVmgMpZbJ+znJH8jTorIauVrOusPxc4vsFnVgJjKdG7v1kkb8fFXAAhpxXx3aM/TciIqIXSwiBSs1JxqrWgs6qRyc/vbx8xtVTm0xl9hBaI5kmnpzwd33cXRhyXoE0sRum5GabREQnwHFM2I6VBJos6CBX0VmtepxfQyc/jPWU1ZyFX9xsMwiXowdP9ghfh1e8V0OwikNEdEIqNQtqmWy00tB61aOTBhuRxYzcjKvl+09pluvDieLVVg0/sooDMOScvKzZ2BJcD4eI6IQYhgGvYq+CDpBNL88WDMz152TBJlfBeYpqznQms/VwACB6IVUcgCHnpOW/eC2bzcZERKemUnGSmVVaL/tzEnpZztnWn/NUw1ZaA/PFapQgijV0Gm9ewC/WDDmvgGnJl/C1RkRET0waAo5nL3cm1xC6bMZVcdgKeLr8sfBzzcZ4WVUcgCHnZK2SuYBlsReHiOhUVavLBQKzTTxXVRudG7YqVHPwNNWc/Jo4UfSyqjgAQ87JMwxw6wYiohNmmBK2bS6bjZH15wD5Yat8iFlvQv46QSAKWzeEL6yKAzDknKR8FcfgysZERCfPca1Vk3Fh2AqAEIVFAfOB51uqOX5uyngc6RcVblK8Ap44k0NVREQnz/UsQIvcjuTpJKplqNG5Ph0AWW/OVz6e1sWQE8W5gPRChqoAhpwTxioOEdFrIYSA7ZjLPaxUYbaVyq2dA+yeaXWoMJKF4ymFFxVuUrwKnph8uVGyiENE9GrYrrncpBPZsFUys2qppDdn9Wd6k8OGrPK7jMfxen3o5WDIOWEmt3AgIno1nHQ9tNxwVX5Keb43Z2NfqyMFfnnIeWl4FTwh+YZjITiriojoNTEtI9mdfBlsssUAc8FGZH8Xrw/HNCBrjWxWFQBE8cur4KQYck6UZMAhInp1jLXJJhsLBC7DzKoF+fgG5DA/VKVe5qyqFEPOiRL8lyUienVMU65mWGE1bJVflbi4Q/nxQ1ZhtGOo6oU1H/NSeCLyQ1UAKzlERK+RZRmr6eLp1HEUg8i2IavVZ3cPWancUBX2DG39aAw5JyhZyZIhh4jotTGWE07ya+MAKBmywsaQ1aEzq/IhR73sjMOQc4oEWMkhInqNDENCa7EcNhLZjKokv6z2lco3I6cOvWrE8eptnaacF/qLNUPOqXqhX3BERPT9yFwlJz9klX4s/3cqX905hNI/z/WFIecUCWYcIqLXSIjVVPG8dEp5djuU3O4rrhsvvCWHIee0MNkQEb1m+X7MpIqzqtykwaZYudnefLxNPtgw5NCzOnYXWSIiOi1Jg3G+pJ/bhXxrfvm6nchfOoacE8NaDhERFSwvDMXm4+SPsunlp4Qhh4iI6KSsqjLp/2l40TqNNWJrI/IpYcg5Aaf8BUpERMcpaypenyp+yHXjFK4tDDlERER0khhyTtAppG8iInpa6/03hc8duVbOz4Ihh4iIiE4SQw4REdGJKlsY8DVhyDk1r/mrmYiIcrOmSj+ZvVl6uTixawhDDhER0Qnb12tzYrmmgCGHiIjoZO3bouH0mo3zGHKIiIjoJDHkEL1iQRBgMplgPp8/2W90Sin89ddf+M9//oPpdPokx3wq/X4f//nPf3B7e3vwfcIwRLfbRb/fh9Yas9kM/+///b+jjlF2Dn/99ReUUqW3ieMYURQhjuPSf5eveR70SqXbN6xt0vlamD/6BIjox5lOp/j48SNarRbevn1b2ME4T2uN29tbzGazrce6uLhAs9nc+XhxHOPz588IguDgc3zz5g0qlcrW859MJjvvbxgGzs7OIOX23+mCIMDj4yNmsxkMw0C73Uaj0YAQAkop9Ho9VCoVNJtNaK2xWCxQr9cBJK9NHMd7n4eUcuc5AMBwOMSXL18QhmHh/C8vL3F+fr7134eIyjHkEL1ivu8DAKIo2vnbndYaURTtDDn7LuDpcYIg2HmcsvtsEwQB7u/vd96/Uqmg1WptPb/pdIo///wTURRlHxuPxzg7O8ObN2/2nt9sNsP//ve/vbfrdDq4vr7e+vnhcIi//voLtm3j7du3sG0bURTh8fERX758gdYanU5n7+MQ0QpDDtEr5fs+RqMRgORCP5vNsurEOiklfvnlF/zyyy+Fj0dRhA8fPiAIApjm/h8npmniH//4x97bKaXw6dMnDAaDnbdrNpuFisqXL18wHA7x66+/ZtUfIQQMw9j6OI+Pj9Ba49dff0W9XkcURbi9vUW/30e9XofjOHuf0+XlZfb+YrHAaDSC67qo1+tZ9cXzvK3H0FpjMplAa42bmxvUarXsc57n4ffff8+C17bnQkSbGHKIXqEwDPHp0yf4vo9Go4HpdIrPnz/j3bt3qFarBx9nsVhgsVigUqnAtu2Nz/f7fUwmE9i2jVar9eTDLfkhIKVUdvwoirLQpZTKqjTrPTBhGGI2m6HRaGSBxLIsnJ+fYzQaZeeePtf7+/tCxQcAHMfB1dVV4TmnIefy8vKgCheA7NzXzzHty+FQFdHxGHKIXhGlFIbDIW5vbxFFUTYkMxwO8enTJ/zxxx/odDo4OzvbW5mJ4xiPj49QSm2tMPT7fQBAq9VCs9mEUuqgnpx0WOsYURRhPp8DSIaQ2u02hBC4v79Ht9vdep8wDGGaZiFEGIYB0zQLjb9poPsehBBot9sYj8f4888/UavV4HkegiDIqm3n5+es4hAdiSGH6BUYjUbo9/uYTqeI4xhSSlxdXeHi4gJSSrTbbZimic+fP+Pu7g739/eoVquo1+ulTbtpWBmNRmi321uHudJhIyEEpJSIoujonpxDDYfDrMdoNBqh1WqhVquhUqlkw0npUFLKNE3Yto0gCKCUyp5nEAQIwxCWZWUfazabePPmDebzOT58+LD1PNIm5G0zp7bxPA/v379Hr9fDcDjEeDyGaZpotVo4Pz+H67pHHY+IGHKIXgXLsrIqR1qpWR9eqtfr+Oc//4nhcIiHhwdMJhM0Go2NgDOfz/HlyxdMp1NUq1VcX19vHZJJKyLrbNvG3//+9739LocajUbodrvwPA8XFxf4/PlzNvzWaDTQaDQArIaSUpZloVKpZM/57Owsa2YWQhR6Y9Lenl3VFKVU9jr7vo8oikqH8baxbRvX19dZg7JSKgtL6fEYdogOx5BD9Ap4nod//vOfe4c70qpOu90u9LgopTCbzfDw8IDxeAwAaLfbePPmzQ8dQlFK4eHhAd1uF0IIXF9fo1qtwvd93N/f4/fff985/CalxOXlJYIgwN3dHe7u7gAkgeby8hLVavWoYbMgCLK1gXzfx3g8xvn5+d77/PHHH1kVap/ffvvt4PMheu0YcohOXH4dl/Wm2UNIKTGdTvHhwwdorVGpVHB1dVWochwrDEP8+eefBzXlNhqN0qnTcRzjr7/+wng8hmEYePv2bXZOl5eXsCwLX758wWAwQLPZ3Npj5DgO3r9/j9FoBN/3IYRAo9E4umKitcZgMEAYhri8vMyGCBuNBizL2no/wzBQqVQKYTGOY/i+D9d10Ww24XkeDMOAbdswDOPofiWi14ohh+jEHbqOyzadTgeXl5e4ublBpVIpXPzjOEYQBFmfT3oRvri4QLvd3joclS6od4hts73SRfIMw8DV1VVhWEgIgbOzMzQaDYRhuHdYTEqJVqu19XNpJUgIkU0ZX58SPp1O0ev14Hle1sd0e3uLu7s73Nzc7BzSe/fu3cax/ve//8F1XVxcXAAAer1eVkX7Xg3QRKeGIYfoxK2v45KXNuJWKpWtlRnP87ILPZAElOFwiG63W3qxNQwD5+fnuLi42BjKyq+Tc3t7i263i3fv3qHdbgNYrbsTRdFBPTuVSiVbDyedCWUYRjbMZprmQev3AMnw0q51eXYtPDidTvHp0ycopdDpdGBZFtrtNiaTCfr9PqIows3NzVH9OXnprLjv0bBNdMoYcohO3Po6LnlpI261Wt16mzytNe7v73F/fw/LsnB1dQXP87JQsVgsMBwOcX9/j9lshl9++eXgkPEt0tleg8EAv/3221Fr/aSiKNq7enJep9NBvV7Hw8MD7u/voZTC5eVl1uRsmibevn2Ljx8/Yjwe48OHD/j111+3Hi+/dcb6bLX1RRT7/T4+fvx45DMken0YcojoYEEQYDAYwHVd/PrrrxuViVqthrOzs2y14ul0unc/q+eUNlWXqVQq+Ne//rX3GMPhEJ8/fwaQDIu5rps1PV9cXBTW20lnkT08PMDzPNi2vXXT0vzWGdfX1/j3v/+99Ryq1Srev3//LAGS6GfG7xAiOlg6pTntvSkjpcwabdPpz7u2afj48WNpVeK///1v9vZTTzkvk/bb7LPeW1Or1fDPf/5za3NxOoPrKdm2/dVDX0SvCUMOER3Mtm24rovJZILb21tcXFzAtu3Cdgqj0Qi9Xg+WZWXNuemaM197YT5kB+/UfD7fualnej5pr9G3SreCeEqHPIf0sZ/qeRCdIoYcIjpYOlX706dP6PV66PV6pbdzHAdv377NZmKl2xY8hy9fvuy9zXNUhr7FIc8BePnPg+hHY8ghesWklBtrtOxj2zbev38P3/cxmUwQBAHm8zlc14Vpmtm+S8+5oaQQIpu2fujtv7b68jWvWdn91/fLOvY5pPd56ioS0SkRs0mwvyZKL9qqrC0AaGitUa3zNzsiotfo44dHCCEgBCCkgFy+LQ0JKQSw3EsueRvZx5K/BNJrCYDSX1a6j6tgPZ1GyWMth0yf85ebQ3Agl4iIiE4SQw4RERGdJIYcIiIiOkkMOURERHSSGHKIiIjoJDHkEBER0UliyCEiIqKTxJBDREREJ4khh4iIiE4SQw4RERGdJIYcIiIiOkncoJPoJxFFET58+IAoip585+nhcIj7+3vU63VcX18fff/b21t0u128e/fuq3cbn06n+N///odWq4W3b99CSv4O9pLEcQytNcRy36P1PYr6/T4+fvyITqfzVV9DRN8DQw7RC6OUwnw+z228uvp4HMdQSmE2myEMw437pjuBT6dTTCaTrY/RarUKIUkphcVigXq9nr3f6/UQx/HOc/U8D41Go/RzURRhsVhsva9t27Bte+fx0+N8+PABs9ls723T4x4aApVSCMMQURTBtu2NncHXaa2z18QwjNLbaq0RhiHCMDzomPvOy3EcmObuH9Xrj7lvZ/Jjbj8cDvHly5fC15thGLi8vMT5+fmL25CRKI8hh+iFCcMQHz9+RBAEW2/z8ePH0o//9ttvME0TQRDg/v5+6/1rtRosy4JSCgCyv1NKKQyHw73BotPpbA05vu/j999/33rfd+/eHRRyAKDRaKBWq+28TRzH6Pf7MAxjbxVIKYW7uzv0er3Cc3ccB2/evMnCXt58PseXL18wnU4BJK91tVot3KYsEFiWhTdv3qDZbO59nkopPDw8oNvtFs6rVqvh5uZmI7hprTEYDHB7e4soirKPu66Lm5ubjfM79vbD4RB//fUXbNvG27dvYds2oijC4+Mjvnz5Aq01Op3O3udF9KMw5BC9MLZt4//+7/82Kjla6+zClw4ZrDMMAwDQbrc3ho2UUvj06RMGgwGA5AK2LSyZpol//OMf2fvpUFKlUsGvv/66t7IAJIHh/fv3Gx+fTCbodrt7758/l0MupL7vYzweQwixs7qglMLnz5/R7/ez8zQMA0EQwPd9fPjwAb/++muhqnV/f4+Hh4eNf5O8fr+PT58+QWsNKSUsy0IQBAjDEH/99ReUUjuH8rTW6Ha7WTi1bRuGYcD3fUwmk+y88kFnMBhkj2maZvaYi8UCHz58wN/+9rdCODzm9lprTCYTaK1xc3NTOI7nefj9998xHo9xdnaWfd0RvTQMOUQvjBAiu2jM53N0u11MJpONoSMpJSqVCs7Pz1Gv148eNrBtG5eXlwCAxWKB0Wi09bZpuNJa77zQj0YjBEEAwzBwdnZWWn3JVznSPo7nNB6Ps4rPL7/8UggzaQjs9XqoVquQUuL+/h7dbheO46Ber+Ph4WHjmL7v4/7+HlprXF5eotPpQEpZOObj42NWQSsznU7x8PAAIQTevHmDs7MzCCGy4OX7Ph4eHnBzc5N9PH3MTqeDy8tLSCkRRRH+/PNPTKdTdLtdeJ6XhaVjbg8g+5par/Tl+3OIXjKGHKLvbLFYZD0fhw7PAKuhAsMw0G63s4sukISNxWKBfr+PDx8+4OrqCp1OJ7vozGYzfPnypXA8rXVhCKxarWbDE/1+f2vISX+jB5LQNZvNtg69jEYjjEYjVCoVtFqtvcNGaVADkgun7/v7XpatlFJQSu2t5AghcHl5Cdu2CyFMSolWq4XBYIAoiqCUys7//Pwcl5eXWdBYNxwOEQQBGo0GLi4usvtJKXF1dQXHcQqVuHVaa4xGIyilUKvV0Gq1sufgOA6urq7w559/YjKZIAgCOI6D8XicvX12dpY9pmmauL6+xu+//47pdIrFYoFqtXr07YUQaLfbGI/H+PPPP1Gr1eB5HoIgyL5Wzs/PWcWhF40hh+g7GwwG2cyjY0LObDaD1hpXV1c4Ozvb+Hy9XketVisMG6TDSFprzGYzGIYB27azC3861CGEyEIBsPmbet50OkW/34dt24jjGHd3d3Bdt7SxNz+7Koqi0ubnfJBpNptZYEqHxL5WHMeIogj1en1nuGo0Gjv7iAAUZg91Op3sQl4WwuI4zvp0Go0GDMMoNChblpVVzLZJG7+BJHyuBwfXdWHbdja0ZNt24fbr1SHbtuG6LmazGabTKSqVylG3T8Ov53l4//49er0ehsMhxuMxTNNEq9XC+fk5XNfd+byIfjSGHKIXyvM8CCFwd3eHMAxRqVQKFYogCNDv9xHHMer1eulv1PV6fet07EOGimazGT5//gylFN69e4c4jvHp0yf88ccfuLm5KW3QTe1rPN7n0BleqfQing7LpENmuwJPWl1RSmE0GmX3y1co9lUq4jjOhuAsy0Kv18Pt7W1hFta+mUhRFGXHKAuPhmFkDeVhGBaqXpZlbRxXSgnbtjGbzRBF0dG3zw9F2baN6+vrbFp4Phz7vo8oihh26MViyCF6oVqtFkzTRLfbRbfbLe2F8TwPv/zyC5rN5sH9EelFyjTNrT05URSh1+tls3wuLy+zQBPHMW5vb/HHH3+g2Wzi3bt3Ox+v2WzizZs3pRfW/AVzPcwcOsNr3Ww2w2w2O2jILAgC/PHHH9kwXr1ex9XVFTzPO/jx8n1Kj4+PmEwmqFQqcBwHk8kEvu/jy5cvUEoVhhS32dfUnZ8VBWDvdPG0f+aY2wdBkPUBHeK333476HZEz40hh+iJ+b6fzWACkA1lpE25wKr/Y98Fp1arZX0j6xerbeu05I3HY/z3v//dWFNHSon379/j6uoKwGZPThRF2eyjt2/fot1uZ491cXGBarWKu7s7tNvtvX03aSP1sdWk9Rle30M6hJdWScbjMebzOW5ubg6a8r1uOp3ib3/7WxYItda4v7/H/f09er0eGo3GT1H1MAwDlUqlUMVKq0Gu66LZbGYNyukssF1LHhD9KAw5RE8siqLSNWrSplwgGQIo6wtZn+Z9rHQhPCFE1tALFH979zxvbxO067r429/+BsuySisLnufh73//e/Z+pVLJmnmPPd+0mhSGYRasnkv6egHFQPLlyxc4jnN0IGm324VmZiEEzs7OsvC0WCz2HrNskcf1c843V+8LF5ZlFXqMDrm9aZobFbq0Z8p1XVxcXAAAer0exuMxAOxc+JHoR2HIIXpi6+vD9Pt9DAYDdDqd7AIohCit4gghYJpmIaCk0tlRcRxna7usS6s7lUrlm6sg+SGbIAiyxtP5fJ4NMdm2Dc/z0G63cXl5ubeytN7Pkc4+AlYNzuuCIMDnz58P7s2xbRs3NzdHz/pZDySz2eygkGMYRvZYrutuvAb5QLJt+n1+zZqyELLe95P20EynU4RhuDGdWymVDTWZpnn07Q/xtcOJRM+JIYfoiZmmWfhtPp1h5DjO3lV70zVSyuSrPG/fvt1YnbZMHMdZQLi5uTm60gIk06M/ffqEOI5hmmbhwp827A6HQzQaDbx9+3bjIjkYDLZWpjqdzt7+F6111uDqOM7WIJW/UG8LE0op3N7eYj6fo16vl/bIpPfdNeMszzAMeJ6H+XyO6XRamP4NFJuKtwUIKSU8z8u248jPlAOSr6EwDOE4TvYaeJ6Hfr+P6XSaTQ1PpVWjdIr+sbfPvxa3t7eYzWYbTebrw4k/Ys0jon0YcoheoKfajDOt/qQzZrZpNpulU6/z20P8+uuvpUNsaZAaDAao1Wo4Pz8HgI0hMyAJeunsnnTY7FCu6+5cbdn3ffzxxx87jyGlhGmamM1mWX9JupBiGIa4v78vvdjvIoRAs9nMwpznedlCflEUodvtIgxDeJ63tTKUHiMNIQ8PD9lifen7QNIYnVYA6/U6XNfFYrHA/f093rx5A9M0C4v+5XuAjr09kHz9RFGE2WyG6+tr/Pvf/976OlSrVbx///7gShDRc+BXI9FPQkqJm5sbvHnz5skXYJNSljYGp1OsbdveetE3DAPVahWDwaDQT/IUQ2bfw9nZGSaTCabTKT58+FB6m4uLi6NmWFWrVVxcXOD+/h6fP3/G3d0dLMuC7/vQWsMwDFxfX2cBJV0g0jCMbIjL87zsGOmMuvXHyFeebNtGp9PJqnvr1bJ0EcH03/XY2x/r2MUuiZ4DQw7Rd3Z5eVlYBfcYu3YcX7frInPocdKLbX41XNu2MZlMcHd3h4uLi6zxNT1ufjuCQ4bQvlZ+gb0y67PPtjFNE3//+9/x8PCAhyBB8s4AACAASURBVIeHwjE9z8PV1dXO9X/KpKsou66bVYPS49ZqNVxfX2ehSWuNXq+Hx8fHwnBd/hi3t7eFhQnPzs7Q6XQ2qiTpDL10SCk9TqPRwPX19cbXw7G3z5vP5we9vutfQ0Q/EkMO0Xe2rUpyiCiKDu5z2LWi8qHHSWcbpcNjhmHg5uYGnz59Qq/XQ6/XK71fWmXa13P0LebzOf773//uvd2+aflAcr6Xl5e4vLzMwtEh/07VanXrkE065NRsNrMG67Jjpr1DQojSMJWuyJye176lAqrVKv7xj3/sfMxvuX1qfZuQbda/hoh+JIYcohcoHd445DfnVFnAOfY4ZbO+HMfBb7/9lu2GnTbSprOKPM/bWFPla6Q9PKZpFi7qaSXjmEbgY0Ll99h7aVdwSGdKpVs1PNV5HRumD7m9EAIXFxc7d08vu88hQZPoOTDkEL1ATzX085RDSOnMnu9lWw+PZVnodDrf7XGfWxiGCIJgYwbVS5QOPRH9rDhoSkT0jNJ1atKdvono+3nZv0YQEZ2YRqOBf/3rX99lmIyIihhyiIie0bc0ohPRcfidRkRERCeJIYeIiIhOEkMOERERnSSGHCIiIjpJDDlERER0khhyiIiI6CRxCjkRYTqZYtAfAQBcz8HZeXvvQnUqVgijECrObbcgBCzL3Lvf0ksThiEeuj2oWMG0THQ655DG9/sd8Hs8ntYavcc+FvNkY89Wu4Fq7fttmEr0M2DIISIopbFY7npt2dt/LIRhhNFwhPFognjHXlJCAK7rotVqwKt4WwNPPlxVaxW02s295zroDzGdzErvE8cxAj/YewxpyMJu6loDYRAijCK4AtA4fM8wpTSm0ykm4ymiKAIA2LaFer0Or+KWPvdjHy/dt2vf+jpxHGf/jkod/hyIThVDDtGJmM8X+PzpFgBQr1fRubwoXGCDIMTt5zuEUQTLNHF9cwXbPnwjxfFogm738aDNPrVOzmc+X6BaraBzeV66wm8+XHkV96DzUEptvU8QhPj8+W7vMdLX51st5gvc3z0gXIab/HlMJjO4joPO1cVRr3NKa43RcIzBYIgoigEApmng7KyNWp1bQhAdgiGHiPaazxd4eFgFnGrVQ7PZgO3YkFJmF1ylFOJYYTKZYjQYIYpjTKczmH0T53uGwJTSiON477m8lAqF7we4u+tmAcSQEpZlQiMJOVonAe7u9h7Xb65gWYf/uI3jGN37R0yns8LHoyjG/f0D5vMFLjpnXDmZaA+GHCLaaz6bZ+Gi0ajhonNeGljSLQva7SYc28bt7R20Tioecaxgmtv3axoORxgOR092zrVaBecXZ6XnKYT4pkpIUmUZZQGn2azj7LydhY44jvHQ7WEymSIIQoyGo4P6nNJjDwejLOAIAViWDUAjCEIAwHg8gWWZaLWbrOgQ7cCQQ0Tfh0jCxCHDW9/l4YX4qgboKIow6A8hpIQUArV6bSOcRVGMxSIZMrNtG612s1BVMQwD7XYTi8UCURRjPJpgMV8AWFa8tEYUF4e4UmEQYjyeJMeREpfXHVQqHgBgNpvj/raLWCmMRmNUqxXYjn3U8yN6TRhyiGgvr+JhOBxBKY3RaII4Vmi2GrBta+dwVVr9cRwHxp7ZQ7VaFY1Gbe+5jEYTTCbTb39SW0RRjMEgqShZpolKtQKgGHK01tDZc7NK+40M04BpmoiiGLFSiA9oiAaA6Wy+qhC1G1nAAQDPc1Fv1DAYJFWk+XzBkEO0A0MO0QmKohjz2QL5IkYUxVB6+4yoXVzXwfn5GR4eetBaYzqdbfSLbFOtVnB23tpbUbEsE17ugr7NfL446HG/JyEEhEyeTxCEpUNxcawQr/Xr5Cs5YRhgvcillIK/rBBJKVDxiq+HEAKVaiULYb4fQGvNISuiLRhyiE5QOrPpqQgh0GjW4Xou7r7cIwjDg+53eXWBWu2wmUBP0XgcheVDQMdwXQfXby5LqzMp0zTgug6CIITvBxgNR2iftQoVrUF/kM26qjdqhZ6c/Ey3PK014uXHTNOELKsQGQYs00QYRQjDEEqpnedK9Jox5BDRwQxDJovWhcmFvtO5KFSLIEShadY0zYOrDE/deKx1EpqEEMuqShIelNYI/ABBEEAIgYvO+dHHFstenelkhlgp9Jdr91SqXlLpmswQLQObbVmoN+oHvQ5xnAz3AWkT95bmbkMC357niE4eQw7RCSqbWRSGEe5u77N+j28lIGBaZmENGK01xiUX5h9hMplhMtk9pOY49ldPSfc8FxeX53js9hDFMYIwRDAoVrgs00Tn8vyr1snZRoh00IuI9mHIITpBZTOL4lhBHHF5XN8mAEhW5k2nMUdxhLvbLmShQqER5oaMHrqPkKLYcHzROYPjOgAA13Nxc3N1zFMrMNb6YMwj1qIxDeObw0etVoXruhiPxphOZvCDpLnYsW3U6lXUG7WjhpLyVRqt9UbPDlCs9hDRbgw5RLRVfpuAdVoDQbB7xlAaiPJU7sptWeZRi+TtY9tWaWgyTDOb3SWQNA0XV4P++tBgmgbaZy20z1pH3adzdQFoDSFFNv1cSpGFoiiKEMfxRkOzUnE2/TwZDuSCgETbMOQQ0VaGYcB1nCc9phDAYrHIpmA/1UEdx4ZhGAfN0FpnWSbe/XIDDQ0BcdRmmSpW2f3S8KS1Luw3tdojSyMIgmxTU9OyCiFPSgnHsTGbzRHHyUwrZ22K+Hy+yCo8yYrTHLwi2oYhh4hKCSFwfnH25MeN4xi3X+6zxfSewmovriScqFih2338qtlWx+wKnn8u+f3AJuMp7u8fAACXlxeo59b/GQ5GGI+n2ecsq7g2UKVaydYkGg5GcD03G1bz/QDj4WqhwMqB+30RvVYMOUQnyPcD9HsD5Kc+qThGrL696TgIAsymc8xmc4RBmM0iAlZbEHiei2rVg+uV78L9vWloRFG0dahtl2N3IX9qjmOjWqtiPJogCEN8/vgFtXoVADAZT7Pd32uNGmybCwES7cKQQ3SCgiBEEAyf9JhRFOPxobdzteG0TycIAgyHI1iWiYvOeWHVXsMw8Pbdm52P9a07puelwUvuCFvbFuc7RhhF+OvPTztvkwxjrR4kHdIqnq/A2VkLYRBisfARK4XhcFy4jee5aLe4bxXRPgw5RLSXihW69w+YzeYAluvE1CqwHQe2bWVztqIozio9QRgiDCPc33ZxfXMF133a3p6d56tUtrCgaZi4uu7sDEnbFud7alEYwc9Vl3zfL12x2DRNXL+5RL83wGg0zsKXEECjUUf7rL13mwwiYsghOhme5+If//f373LsIAwwnycBJ6msXO4cKjk713h86GM4HCFWCrPp7FlDjtbAc484GYbE+fkZTNPAbDbPtl5YnZPGZDItrFM0m86xWPjwvM3eGsMwcNE5x9l5G2EYQohkawhWb4gOx18FiGgvrZFVE0zLhGns/v1ICFGYNfSjdiJ/TlJIOK4Dr+JtBECtNcajCQaDZAgxnXEVK4XeQx9hyVT77LhSwkkrZgw4REdhJYeI9jLNZGXjIAgxny9wd9dFs9lIpjevXXejMMJkOsNwWckQAs9axVmndDIVO94xFPUtm5eWPU5+/aAwDHF32822ujCkxNV1B9PZHMPBCAvfx+dPt2iftVCrV7M1c4jo2zHkENFeaQPx/W0XURxjNptn/Tm7CAG02y1UqpVnOMtycayy6dw/4nF8P8h2FhcCOL84y6o9gR9gPl8gimOMxxNUqhUw4xA9HYYcIjqI57l497cbjEcTTMbTbAuDMqZhoFKtoNmqv/ppztVqBa7rYDyeFGaaGaaBq+tL9Ht9TCZTnJ23N1Y3JqJvI2aT4PQHy0/cqt9BANDQWqNa/3HDA/TzCcMIUZj0hUhDwrbtvf0f6aq+Wif7VRmGAcNIek2+dchFKQXfD5JGoOVqxj/zME76PbrtNVVKf/PKxftWU6bX4+OHRwghks1cpYBcvi0NmSylsPwelcvdXtOPJX8JpNcSoPxrtvu4mqk4nUbJYy2/P19a3xi/A4joq/aQSjcBBZKenackpSydcfSz2veD/ym2ZhBCwHniLTiIfnY/769GRERERDsw5BAREdFJ4nAVEb1MWm+sr3PQoE46NPTCegNOglJArAD2+tBPgl+pRPRyaA2d7uckxGGhpuQYhb+Xx2Lo+QZKAYsQCCJAyuR/bitBPwGGHCL64bTW0HEMIeTXh5vdD5DN1ALAwHOoWAGzRfI3sAyLAPwQqLDJmV4+hhwi+mG00tAqzqagfvfosb69BMPOJq2Tio0frsINUKyGqbXQSPRCMeQQ0Q+hohiAhhDy+a+VDDublAL8CAjCJMSsS18ivfxDacDg60YvG0MOET2rrHoDATxH9WbnySyrEa+5KhHFSdUmjLbv3F7oadLJ7YII8F73atb08jHkENGz0UolvTfy63tvNADEMXQcr2b7pJUZIQBDQkhj1Ry773HyjcqvpUFZ6yTcLMLk733SBXDzL00Uv+5wSD8FhhwiehZZwPmK5uIs2MwXUPNFEm7yRPbHBuHYEJ4LYZrZ0vPbHygXlk6RWoabmb9sxsaB8/KXCjvI6CRgcr8tesEYcojou9OxWjYYf0XAiWPE/UGxCbb8lii7Yms/gPYDQADCsiDrdYhd059PMehoDcyDpHKTSrco2nWfKE5eVkMClrG6Q/pS+xFDDr1oDDlEP5EwDPHQ7UHFCqZlotM5h3zh65VolQScdPrxodlBaw01GkMv/I2Pj4ZjBEFywW61GrAcq+wQm8cMQ8S9HmAYkLUapL3lfvkp5ztOeH2TUikFTNN8kk1Kj6G1Ru+xj8U8ea1a7QaqtepyCrifhRWlYoRhBCB5WlbZRqyxSipleu1jWieLAGatOWJ1259481Q6bQw5RM8sDEKMJ9Oj7lOvVWHZFrRO7h9GEVwB6LVO0elkikF/9E3nV61V0Go3Cx8LghC3n+8QRtFRxxIATCnRaNbRbDVKA0OsFBYLH/5igShSEELANiQc34cpZGm1QSmFIAiSt9dnSh0ijqGGQ2jLgqxVIbZtMFpS1VFKYTyeYjwaJzulb2EaBirVCpqtOmz7+zfoxnGMhZ+EHO1HgJoBkUI+rYRhhIduDwBgOxbOz9sQhrEaekqHsMqkU8stA5DLJh2N5H4MOfRCMeQQPbMojtHvDY66j+e5sLC/WqGUzi50X8urPN3u34YQyRo4AhvDVBrAbDrDYDAqbN+gowiz/hCIFbyKi2azAeOIIZEwCJKgVwhHJUkp/ZAQEI4DWa0uL97J612vV5cntAo689kc93cPiOL9zbpRHGM0GmM8HqPZbKB91tpb3dFaIwgCqL1Dc8n52LYNI63kaQ0zjCEjBen4QPWA4JEOSZVNGS88VnaHZBaWYQCmTN4PIm7zQC8WvzKJToiUAq6zuRKt0iob3klZlglDboaHfRdi27Jwdt6GlLvHnSbDMebzxdam4CTgDAtL1hgCCJcBBwDmswVUrHB23oI0Dgs6SmsEYbj5ia2nKwA/AGZTyFoNwrLgumuVF60RBCG63ccs4Ni2jUajBsd1YOUu8kolQWU6mWIymUJrYDAYQUqJVru5OTy0ZjgYYTzeX+mzTBPXN1cwAGARwJr4CIP4gEbi5Ro3YQwdxklgOeAuAFbHjpczq0xjOWSls4BI9JIw5BA9M89z8Y//+3vhY73HPvr9IQCg2Wzg/KK992JYplqrJr0YOVpr9HsDBMGw8HHXdXHROTu6d0QaEq7nwNhxcdRKYTGdLZ+DSP/LhFGM8Wiatb00W01UPBeq+wC8uUQQBBj0RgijCL4fYD73Ua1VDjs/IWBby6rXrmrO2rtKKUTDEWS1Cl2vbRx3sfAhl5WpSsXD5dVF6WtnGEmArFYr8DwP9/cPAJJQ12jWd75uxxCxgpgsVovzpUlk63ATAKWTYKM1kAbcY6aB53u7lQJCnQxfhRFwYF8U0XNiyCH6wbTWiHK9LkEQQCsN8QSrySqlMegPMBgkAccwJIQQiKIY4/EEUgq0z1pHXXhVrLCY+9srOVpDRzHiWOUajYu3DYIAUZw850qlgmrFgxoMswu0bduoN2voPSbDeouFj0rF3T4FPLuwK1iWic7lee4hxQHVDWA2m6PfH0JNp1BjB7pRKwZNnVSXbMuEbZsHhUPbSYaT4lhBaQ2l9M7CiRACF51znF+clX4+jmLc3XWB0RyOlJBRrhKzXm3JzhtJpSWOgSiG0OudXOmNviLoaA0EMWAw5NDLxJBD9IMFQZgM6ywtFovkol71vvqYYRhhOpliOBwhWi72ZkiJq+tLAMDdl3vESmE4HGM6maHRaqBWq8I0jb0VpCAMcXt7v/XzEsteHCmzoSpzrWcjzoU627agF4tkmndGwLQsmIaBKI6hVJwUHHK3yC7VpoRw7aT5NX/uywUDdRQBsUqmr+8IJirXl6J9H2o4hGyuhpdMa3URX8wWGFsT1OrVra9XGIbo9/pJ2Fs+T+OAmXC7wlMURoiDEFasYNgWRD5orp+HRhJs1vptstnfQYAvn++K99nzb1+pemi3m1h1V4lkmIoBh14ohhyiH0gpheFgFUSA5Jfjx4ceTOsS9rYpziVmszl6j30EQVho5AWS/o2Ly3N4XtJUfH1zifu7B4RhhCiO0Xvso/fYT6YVWzaazToazfrRz0cgCTiri2V5FUXmeoEiP4AK1mcpaag4Rqy2NPiaErJahXBsGO025PJ5FbZXApIXUynoMIQOguT/aLXicp5aeywdxVCDIWSzASElXNdBtVrBdDqD0kmF7KH7ANOyIdeOFUVRoTnZtiy0z9rfPK088AMY86TfyDRNSJE7XvpvrpbNweFxM+EOquTkv64cC6i6XCeHXjSGHKIfRCmF3mMf4/EEAFCpeDAMifF4iiAMcXd7j8urCzgljcRlbNteLkS7uhAZUqLZamz0griui3e/vMV4NMZgMMxCll6upeK6xce0LBPvfrnZmLKulMLdbTebSn19eQ7LspLqhkh+yy9bM8ayLUgpoJTGtPsI23ULa90opTGdzrJrqm3bSdVCCkjPg2EYkMvHLNu9fDVSJQDDgDAMaNdNqju+DzWfQ0dRsv1DqeQIOo6hhiPIRh3SMNBqN2E7NkbDMeI4hmGa2VT20qMIoFqt4PziDOa2aeoH0lrDn8wgl5WZQgBOh6TS/afS6s3aKJQhJRqNLeG1bOuGNYZlARUXqDjJAoFELxxDDtEPsFj46D32s2EqQ0q0z1qwTBNRFGM+XyAIQnz6+AW1eg2tZgO2s3utFdM0UKvXII05PM+F57mwnZLF3pakFFkACsMQs9kC/mIB27aXa/Lsn86slIZeXlAFgDCIliNUYhl0JMTatdC0LNi2Bc+rYDIYIhiP0R1PkllKtg2tFOazBeLl1g2WmTTxCttMVis2zeRifuRMeQEkgadSgXBd6MUCajaDjtVGr4+Zq07oOIYajSFbydBVteKhUvEQRTF830+GG2er4UZpJFUfx3Hgus6TLdYYLAKEg8ny/ExYlp1VqhCr1erEAPr9YdbIXm/UsqqcaZloWJtN1Zlt22NYBuDayf+cRUU/EYYcomcUhhHu77pY5FbxNaRE5+oiq550Li/QvX/AfL6A1sB4NIFWOmmm3SJdebdWr6JWX82uUut7PG1hGAbq9Wq2Nkx6v0OnMwPJpXE4HOUCjij2jCx1OudwHBuNZh3RoI+ZFtAiCX7J67K6j2kaaJ03YVVdyEYjqcgcdDbLjbKDYDnEIpLqkRBQy9WJYRjQlQrMMIRaLBDv2KhSLxcPTHt0BADLNGCZFaAmgDN8120gtNaYPAygogiAgOvYMHQyDTxblG/tuYvcfQM/2BjCLCibhSYAvQw32jEBKGCxDHNCwHHsZ13VmehrMOQQPSPLMtFo1uH7PrROhhzWh6Qsy8T1mysMhyP0ewMYRrK+SnJBKb8QT8bTbKryU2m1GkfdPr3cHXqpl9BoVyqodCQm4yn8YHUhtkwDlVoV1aoH6dhJuDjygqqWjdWBH8A0TJx3ziBNA3Gs0O8NEcURbMfG+VkLhm1DD0bQKqnqpIsPaq0x6A8xm82T52beQraapY8XhNHuIJFz8/Y664/a/0Q0FqMJFv0hoDSk1vBMC2LHY1mmkQUQIQSGwxH8IMxGpHaSAsowEHkWdCCAkoybrtFj2ww59LIx5BA9s2q1grDVhOM6qFS80uEkKQXa7SaazTqiKM76L5L9hiwYhpHskXTUVpfH2TeduUBrqCAsVHG2VXLSi6/2fUApOK4Dxy3rOxKAISHrtY2A4zgOTCP58fXN684IATgOUK9DLAIIFW80EmdPM4qgptNkdeQ1lmkgOLrZdwetgSBEuAgw+vKQbIapNaqNOiy7/Ee3hoaAQL1eQ6WarCuklIKfbvew6/GEQGybiFzruJ3JiV4whhyiZyalxNl5G0BSKYiXs3DKGnSllIXflk3TxNVVJ7uYpf0erufi5uZq5+POZnMMBsm+VrVaFY3Gjt4MAEauGrBvvy2hklVv1xuO060cLNuCtxZk1HwOQECr5QrFy0XpbDttXAZkxYOwNmeYWZYJc/ncy4LUsbTWUNKA0W5BzmeFWUSO4ywrO6u5W4GKES2blj3PhbU8R7X895xMpoiiGFImgWN9tWZzVzCLYiCKAKURBiF6j32EQkMYEo5hoFat7Am3xSgjpcT5+VnhM2mG00DSY1OvAI558JCbQHmAJXppGHKIfqD8MFO9XkXn8mLnOjVhGGUbZbqug+s3lzAMA5ZlFrYWKJOfpm5ZJrzK4evw7Ntvy0wXzU2rN0Ik69Isn0qjUSuEHK01dBhBiOS8Br0BojhOhpUuzmBaBoRpQmw5x8lkitk0GULqdM5hLJuyk8V/l9PGo+U0ap2uBry9jqFiBa2TjSbts+TxtR9AGMbGekUaGoPBCJFpAaYJ13NRzZ1nrDUWCx9RFMOQBhrNxv6lAPRyZlS6SSaSHqVBb5D9u5l1D816HTJtsyqZCbUt/Gw0PwuR7DdVd6FNY7WTehAmU9NlEri/ZtVtopeEIYfohUirOrsuLEqpjWnc28RxjNlsjvlsAd8PEIarqc79/hDT6Qy2baFSrSynr2+vLkhRvidWylBqY6hKQ2/fyHJZqVi/SmtoKK2glIR07WSH8bXeE132sThOZkoF4XJfpeS1int9xEEIYVuILRNGrbLczqB4f9u28ObN1fIckAy/jUZQvp9NM9dIZpIlfyvE0ymMRiP5d8s1eKeBIXs+SmX/rhuNumo5KyoXbpTSmIzGydICy13BTcNAu9WAZVvJbf14tWN44SXcMgc8fbqGAFwbsWNiPJtj/PmufJ+v9HWxLNTqVdQb9cKMM6KfBUMO0Qsxmcwwmcy++ThaawyHI/QeBzsbYYMgRBCEmEySPabOzltoNhulIctxHbz95U354ykN5QfJun9yFXLm80U2jXnjPmFYWnOI4xjd+0fAMGBEESBHe5+vms0QBwGgd2zfECvoIIAaq2SLhdkcKBkGA9JZ1AKy0YAeDoEgBKTEfLpAvz/I3QhQszkGQmCw9jyj5bT7KIrx6eMXAEC73cyGKdMtFpCbnq+VxmI+x3A4RhxFyeid1nAsC612Mwk4pgFUreQE+pPVujgFax8QSLZ+8JI1biazGR4/3x20k3oQhuj1BhgORri4PEetttmLRPSSMeQQnZjhYITHx372vuPYqFS8ZB+lZSUhVgqBH2A2m8NfTi9+fOgDGmi1N2cPzecLfP50W/p4UiPZCVuIZE2crOl4+8wbnaselOWSbJuGXbSGmkygohBwvazSklK6WFHRSkHFCiqOoaZTxFpDi3ZSldnyEKJWgx6NkjCSW8Q5OwV/Ae3Yydo9OaYhCxUdIAksiOLcEBpWm2sut6yI4xjR8vMCQLXqod5swnAswFlbo+aiDgxnwDzYqGxl52kZgOcki/chWTH58aGXBZxKxUO9UYNt24UtJ+JYIQgCjEcTzGZzxErh8aEH27L2rtdE9JIw5BC9EJ7notVq7uz9jKIYj4+9bD+kdSpWmE5X1aBO53z79gy1Ks7O25hMpri/60JrYDqdodGoH7WAnThmc0csu2NyVYT85VlKiWarCeviDHLLfkhaA+PxBPNeH2oyAyrJLKL5coPN4skl5xXHKqkQra0Hs3js4fN0BlmtlDbdNho11BsNxP0+PM+Fu97cLQAYJowt08on0xkeuz2YGjCiOKkKpU8ie/I6+7viugjdAFEUot5qwG3Ut+8LJQTQqia9NaNVU7gWAto2gfNGEnJyfD/Ienyq1cqOndQN2LaFarWCh+4jRqPJcvHDgCGHfioMOUQvhGka8Cruzp6cIAghhUSM8pCT79eRUhx0QbKsZEftOE4qD/vWelkPYzq9cAuRNR+nlZz0NoXZRVoXhmnyz1YKCdux4dQqWytBGsB0OIQaT5Lm5m3KXsZCHtOAFsnKx3EE2WiW3keYJuQy6EizZHq11hBBAOm6Gx83IwU722JBl4cbvfq8FAKtixbguRCH9sBUnSTM9IeIbRNhxYFqVTcCztfQy53Ts/cPXoqR6GVgyCF6IXw/SGYw7Wo83rVpJdIp5zYWCx9KadzfddFqNeFVPMi1Kb9KacxncwwGw6wy5Dj7tyEwDAnbsbIwptKLdBpu0inkayGluAqvymYC5S+bsYoxnc/hT6ZbZwppreD3BhAaSP5I2LaNi/yaPutbFGzf4Cr505TZ1g2pNJwJx4Gs1aDm85JgpZOPO05y32yLBQ2h0qGoXKApVG+wCjmOBaR7dB3LMhCe1xDuWZ3acR1YpokwijCdzvDl8x0ajRpsxy7srRVFEQI/wGg0yVbntkwT7nqQI3rhGHKIXoikEbi8UfdQQgicnbUQRRFmsznCMEK3+3jQfSsVD2dnrb3ThtcbpM1sfRzsDDnpdg6risYyXORuozUwXQSQo8nWx9dBgHg6W55nbgsIy4SZn0Zftg/TRtApDlk4oAAAIABJREFUfkAs/NKhJwFAVqvQi0XJBKZlHPMDQMhCZSb9X0Pn3sfqNkIkPTOm+Sx7Qtm2hYvOGbr3j4jiOLeVxm6mYeCic7Z/KjzRC8OQQ3RiDNPA9ZvLZZVmhMViUdqXCiTXWNd10Wo14G1Zffkwx/Xl7DqO2LPej/b93MPtGj5Jg1caPMpuWzxvHUWIR6Nkn6z1owkB2Wwi7vchjGRxQGEYkJYFsVx9OZkWnxuSygUdKL3aHdw0ksrNN+5M/jUq1Qp++dXFeDzFZDzJthgp4zg26vUaavXqt68sTfQDiNkk4CDrT27VQ5HsTKO1RrW+fU0Tel20TmYdKa2SjSm1hmlZMKSESFcmPuAYpZt9ag21CLIqTnFzTlnIPVLK5CtUKUTdLoRabQSZJ1tNyNJtHpZrCT32ko0p14abCscxZLJaspcENw0AYQS1WCxDUq6Ssk4A0qtAlixEqAGo0QjQgLTsVbVKZ38UhqOiMEIcJa+5NA1Ynrvcyfvp93zKz+Y6ZiG/9Osj32+TrmjMxQB/Th8/PCYbyS6XdZDLt6Uhky1Llms2yXRl8ex7F7kKafL1UPY10H1cVfSm0yh5rNxeaS8JKzlEJ04IAWEISMhC38Wxxyj9TV7r5IKdH6pKf2AacnttR6Q/RDdvsbMnRSnoOF7LJsXjCNOEbBc39BQAYJkwrBp0tQI1GkFv22dKJ1tOCMssbimhNUSsYDjuZj/N2iyptIpjGhKmtRyOcu2Dt034Gl+7I3j69UF0iriFLBF9HztHknZcVHd8Tse5lX633Fc26zvX6BFSwmi1kmnjZdWp5JEQT6ar1ZXDCPDDpKFYYbO/Zn1YarkPFzwHqHrfPeAQUTlWcojoienc32XDQXuGQXZNYVdqZ3iSnruxMN/W21YqgJSIR+OSULQ8Rz9A9hzy57VlCnjaZCxq1WIj8a7hMSL6bhhyiOjb6fwbO7ZXSEkJIC69nY7V9runDcSFsJB7+8iF6qTrJvteTWfLHiIBadsQ5mqKfOlQVHouuYCj4ghKJ9P7jdiBkJyJRPSjMeQQ0dcrhI1c5UYnDa2lFRshdjfeHrCnUmmRSIiDqzh5slIBYgUpjWTWlFir3GzptwEArWIoFUOvDXupIICxvjeWXg9nRPS9sSeHiJ5A+RhS2UcFAGEYy7VjSu4T7Qg5+3p5jg0RsYKIYhi2kwQkIcr7bdTa36YB7TlQUNBlizOGYfkrsmc1aSJ6WqzkENE3EUIsG3SR2wh8+c62+6QVl7KbRFtmPSUPtu9k9pztUm5VYgBrU8BLViNOqzCWmaxvI5IFAIXrQo/Gy18Xc+vtqGTXc2FznyeiH4khh4i+jZRApHJLa6R9OXr7GoGGsbr9+ueVglaqdIZUYTipzJ4hIR1GEPnNTQ8aklLQUkDWKpvnY1lJo/H6k9CADgJgPeRwyIroWXG4ioi+iSjsdZVbUi5fHdm4j5EEnZLP67UNPAukBAxZflitt04J1wB0EBV3Ad81JLUMWnHoI44CqCgofyZSQjouSpPctt4iDlkRPRuGHCL6JquQU9Jjo7fsWy0lhGmW73iuAR2G5Q+2vB/KdmHXujRY6OU6N9oPkpWS03Cz3mezDEkqChGFPuLIh9Zq9Tz8zT2eBADh2CgNa7HaaEgmoufFkENE306IzanVWpeHGCxX2bWsLVPNdRJIyu6HdIionA6K4UhrDURxsrpxFCWLCSoNaLWq/GidHNi1oV0bsT9HaWgJtpyTaSbHLXseW+5DRM+DIYeIvk1hcb9VOMhGq7YFnf/f3nkup65sa/sd3SSntfcJX9V3/9e2T50911oz2USh7nF+dFAr4QQG4/ep8rQQkhCeIB5G6J5Ow4B5Q8Gc/X40ChLkaLiuRbe7wrVC2ktrFwQnzu2kVdVEb6xtRiWeTsLEmYMHxvjoyAfmiRqNSBFCPgRKDiHk3cjEFjUuw01L/X0mYfZuHU49daMyeb/pNMxUPiBP6lwQnRSlqR3gHLRuRkr2MY2kEwu9mfXFRkbEayz1JhK7qIp7k/OMTGrKuhxCPgZKDiHk3Uhv8s52ymrwI91ayGw63GmuGKyBARAiJ/N5UeLcPrqu11FwYk2M822REkBF2tMuvISxiBQAmXdmTc+d55QZQs4JJYcQ8n7irOODUYqRyIUAIQIylurZVYOSkKUiFzy399dqD7/aZMHR3nxXadDAEclJNTpD60cYHWmZhceEnBVKDiHk/QhiS3hE00+YsHK0ADmmnvr1N6HrSdeb4f0mkxDN6Y42HLul/HIVZwz3of6mtXOUnCGReauUHJAmPTS4ISHkpFByCCFHQVJti2bDibcx3kpubYzmDEuQbodTViICc3NTRHOQBUfVA87BPT5GeWrXyohJgtOXEr/bhTqhcoeXMCZNwEjnFSHkI6DkEEKOgog0oxSXnpNayQ+mnmw/pYQQBfGb7fDjTadhFnFfI9UAaS5+VqCu4Z+eDkdyilSZeg+/2QxMOlrsd4jyYcpNx6JDrNch5ORQcgghx0EkdllhMJqjfjiak1NPOhDxUIynrETCDOITG+tuikH9ELuhage/XhVpLSkkpxAcDSmukYBSfn6H7yt2LheHIjkUHEI+BEoOIeR4TIbqchCjLH44mmMMTKuQOO0cl+oafiRthckE5uYWqh5ajlycJ9lUqPPwq1Xs1opFxYWvqPfwT0/Q3fagyIj0ZqjqbjC8fkxo6DmEnBxO0EkIORpiDGRiwwB86VM81b9oiJgMDZwnsxlkNoNuthDTH5BPn5bQ+ay1b3IEs5hDd3P49SbcP5QeU8BXO6Dew8znkMUcmDroxkX5EUCGvvNJ82usgwroiwzn4CTkImAkhxByVGQ6QTtfU4yZ4/1wysqYfiFxgXoPXa46K+O8UxCYxU27S+vAKIRa7+HXmxDd2UbBeQFmsRi/s9c2//zxRkqxCSFHhJJDCDkqMrFx1OAibVSM2zc6XcNsFtvCh+/3601uxw4OU6SmrM2SFOpvRlrWU6v3iyMtGp/TZGDAw8FN4wM9f+SxqSAIIceDkkMIOTpmPuuseUU0Z2JG61j8r9gWnsa/8ZprcWQyhV3cAMb0x88BmpqZ17qFIJzXAcIcVcOFx892ZRFCTgYlhxBydMKYOQPRnDS3lRsRndkstIW3wj8N6lwY6K9VYNw8Rmgrv4FYGwqd20fPwiGHRjweOCeZTkfvV6Cp6ykeKi8aXmYJORd89xFCjo8IzGLW6q7KbeUxmjPYaRUH+ZPZdEBSwnF0vYGut+2OrVJ0JlF0JukYWvpNO6LzjOeItaFN/RCqh2cbH0lzcV4rQk4PJYcQchJkMomTYHbSOM+krTCdhvRQb1/Nv/1yBa2q4nhouqqgWXTMbJ6nlVBgQGoOWI4xMPf3z0diane49XysK4uOQ8jJoeQQQk6DxNqcMpKTx6+JgwMOFBkLAFksQtpKfTG4IFqC5B6XQTAGjg3EKMziBubmFjKbAtAmOvRcpkoM7MPDuKBEFLE1vXvAdB4io5EctpkTcno4Tg4h5GTIdAKp9lCXZCYOxpdFx0PF9AIhYgzk9hZS19DdPkRTosRoliYP//gI8/AQozjoiQ5EYGZzQOaAd1DvwuB/zkG8B4xAxCA3dIuBuVnA3N29rPvJe+g2TTsxMP7PoQEEma4i5ORQcgghJ0Vu5tDlGjlfVH62e4WKCxN1dvebTmFub+HcE+A8oMmOkiEB6h3c79+w9/fIK3snEKI6mE1j6ikcoxwwUIwBJpMwK/oLu6EUgN8Oz6uVn8yBVBcLkgk5PZQcQshJEWPCaMZVFVZo4wAqElrARcPs4OV+ALBYwNQ1/NMyBIDKQuYkNN7DPT3BLEYGEyznqjISZhm3piUZb8ocOQcdmTw0H3ck3RWGMGS+ipBTw68ShJCTY+bTfsoJCsk1Nm44e5O6rW4W8N615aYoNlbn4VarfpeTxHbx3FAl+bipueotqpEm9CyKbzobxEebzwf3l/wPIeSUUHIIIadHJMwXVUZhyqiMV3jnhhuOjIG5uYVJM5UPTtkQa3TWG/jdtrk/zzaeojl49+B8CkA3G2h9oG1cALHm+VGSCSEnhZJDCPkQZGIh81lvED/JsuPHBwmcTGBub0PaK3VcDW6p0F0Fv1qHUZHLCTbbC29Gt1v4XppqYMyfWXfU53JLhnEI+QgoOYSQD6ObtmpERwEfu63G5raKhcgynQwPFFgkn9Q5uNUSmqM6nUjOG6I5qgq3WsGvyjTVCCKjksNUFSEfByWHEPJxiMDc36CZ8gFNZimNhuz86GjAZjqDub2DTKdtGcoC097eVxXc78fQ5q35gV6NOgf38+eBQuNO0fRsNp6qeqNkEUJeD7urCCEfiwjM7SJPzQCgaS+PxuNrB5NmM0/rRUIX1mwGA8AD0GoHERukSCQHbVpZKomt3vsqRIPub0NB8DOioQC0qsI0Eq5+JniTHhiAEZjF4tV/FkLI8aHkEEI+HJlYYD6FbqvW4IACScPywTsHY22TYtKUdoqpq7s7eBHobhcH9EP2jKwcuegYYf+6hn98AswqRFqMCWP0GBMfI9QFwTuoc2Gm81c9McAsFoziEHIhUHIIIWchFSFrVaMMk2TR8YCHgzGmqKWJviICmU5h7+7gjQkdVYosO02dsXR+4r2q0LrOj6lp2/c+JzuBMIpDyMXAmhxCyNmQxRyY2HY7ee64Sq3lab6pMJgfBGHgQBFgMoG5u4O5vQOsCQXJUm7b/EhLdI7+TEKa6v7AdBCM4hDy4VByCCFnxdzMIXao46pZ9s6FjUtpMZLTTeb2Fvb+ATKf53TXoOCcqq1JAHt/z3FxCLkwKDmEkPMiArldjLSWI68LoqNBbOJPEJ0gO7JYwD48wNzdQYuojpii8+oUjiMC8/AAmU6f3Y4Q8rGwJocQcn5EIHcLYLWNreFNNbLEZRWBdz7MhVUIg6SuKihgJrDTe5jFAn67hVY7qHdhDqljS4YCsAb24WF0jqoMJ+Mk5CxQcgghAJpu7mLNC7cb2Cb+Dk1NxYyccUE62wEaCo5v5pBdBdQOpeg05cgSJMhIjPzEbbQ4qgBi57DzGXS/h+528FUFuBpi7PtlJ827dXMT5tV6TmAYwSHkbFByCLky8pAxLRlpm8nYrAjdQfiGD6E5xjJkPAceNq/Q8Q0AO4FVwKQ6nGLsmxC0CTOXK3zsvDLp5JHbrwBAwtxRMp+Hmcx3uzDuTV2HVBjkdREW9eGY81kYB2c6fT77xWJjQs4KJYeQT4oW0tFa0r57aHsHdHfVZqG/X3ng1vr2PuOBIB0Vn7GgkBMDa4Cpd8VWIWqT4zse8OrDRJhpnJtiy+aGANMp7HQKdQ5a1yHCU9dAXQexS7VAce9m6oVY82MtzOwmTNUwmbystIeCQ8jZoeQQ8gkYFJqXRmK6sjEmGV3haa3rH/RF4qLdyE2zkXbXans7B0EtFgvvwpQPBblOB4DWDrAaojbdx+kg1oYOqPk8/K3SXFnpJ0/9ELuyrAXioIGv0hUKDiEXASWHkAukm2rqO472tutHZ9obDHhSL4LzUplpjjWceOrNPdU7frPiUImPA7A2Fgt1sOUUEGX6ShDmu/Kaozov0QuREKE5ets3BYeQi4GSQ8iF8LzYjEhJ9/6eiDx3zPZJHN5G+2KifRF6UeTmhSiAjVhYADfeIfSVN0g6vgCqDioeZmLHB+U7JRQcQi4KSg4hZ2aoq6knL2MFvkkoxgqGR2pu+lLyfIqqvc3zYqPdJ/FOHICVsZipxzTV0BTj3+SOLQX8vg4jEBsbxsk5MQoUAw4SQi4FSg4hF0NRvzIUvWlthUY8DtbY9CMzowI0tA0wIDQHjpnPq7f2KCiAnRjUAGbqQwqrKzsSwjqh5KaOoyObkMo68rkAgPfaG7uHEHIZUHII+YxkfyjHkjmw2Uu2GBKW7u2hiM0bH/k9OAAbMbBQTFUxSR1SaW4qASTeVlGoKtS53IWV5r56i5YoQg2Q8woPgbECS78h5CKh5BByZpoxbYoW6cJdBOGDurnd3N/ftu0/ok0XEsp9igPJ2P0YP6YWDyhd8eme1AlxEDgRWATRmaSpIPJYORrTSHGlOigknF4xp5W0Ju4sjSWZn4axeZxi732UGwtrBdYYGEZxCLlIKDmEXABt0UFomS5mK5BYdJLSU9kjEEWmc1/c7XmRiWPBSGr1zscsjxEjHtocQ+LJaTxYV3QkPu5bi41fS5KdCsAkCo9BX3gACemsfJIB33WUdNqqaTJ01BB4I7DWYmoNrDUwH1DvQwh5O5QcQi6EdjAg1JQEB4kC0pKdKELlh/iI7CCOEpy6kNI2+TYAjQ+e5SYuDMtO+EeT7KA4XuuYzf29wuUToQD2EOzj8zEAJuphARhV5L9E+eTRjlapBumpIXBiIALYicHEhh+KDSGfB0oOIReKlJbSIqa0tEmxaNpetSVCLa8YmEOqPGbrsdPwezny01WUdkonb9/apys2ncf8APHxACpppm44qCciMLFex1rBzAShEfO22h1CyPmh5BDySehKTzk/VYqnQKRIcaGJ2mhzAEUZsQlrJOepGt2RIh0VUlrlPu1gSPatvHMKGiULG9AZzbrWWTfEa2RI+rdiFEriP0YAMY3UGJH45xGwvIaQ64GSQ8gnppviyv82bjGYnmlHeVIURru+0RhN3rxvIVqaUWt9K9dVHKO10UCD2JjQpBCRtNakhfQ8g8c0spJau5PE5D8HIeTqoeQQcsUMSVBe6n3SF0IzKh1d6cGLgyxN+ZDGbm9plRQdYji6wqgLIeQwlBxCSI8xORpc+2rRoJkQQj4G8/wmhBBCCCF9PmaQiLdDySGEEELIVULJIYQQQsj7GJhE+BKg5BBCCCHkbVyo3CQoOYQQQgi5Sig5hBBCCDkOFxbZoeQQQggh5M1clta0oeQQQggh5I1o8e/lQckhhBBCyJtQxcWlqEooOYQQQgg5CpemO5QcQgghhLwNjVPxql5kRIeSQwghhFwJ+gGi0ZrbTtCXmwuSHUrOlXJBrzFCCCEfRO/aH8IskGgmCuTlYxAOFaI5l/ixQ8m5UtT7c58CIYSQD8bV7uSPYaTRGZF+8fElyQ4l50phJIcQQr4ezg2GckZ5S1TH2vb+qhrSZGVdzoV8CFFyrpQLeX0RQgj5QJzrR3KeE5nXflwYo8Uy8gdOmbK6lI8gSs61EV9ZnukqQgj5ctR7n6Vm0G2KlYMi8gI7KSVHxPQjORcUzaHkXCm+F7IkhBBy7VT7unVbRI4eVZlOmiPaSZIcH37jsqI5lJwrhYEcQgj5eux39fMbvZPptNGXiTVBcPxlRnMoOVdIKgTzjqZDCCFfhX1Vwx247gvGa3NE5MVFyCKALVJW06m92GgOJeeKcf7cLy9CCCEfRbWrjzoGziFm8yKaMzHwPkVz/EV1WlFyroCxF7WrGckhhJCvwnpTAWgG/CvVQjoFxy+RoUPbzIqU1XQ+hfe+ER3vW8XIedqHM0DJuWLqPSWHEEK+AqqKbZSclCRKKahSeERS0kqLLqzXR3+mE58btawxOZrjC8Hppa3OIDqUnCuj+xKq96cf/ZIQQsh5Wa924wUwcX2agqFZp706nZdqiAgwnzVfpGezCbx3MZrjYzFyEdHBeUSHknNlNEYeXkj7itEcQgi5dtarXV4WCETKWcEVnY+GAZroz0spJWdxM4N3PkdzfKfb6lyiQ8m5KvovHFc7dlkRQsgVs69qbDd1r0NKRABpxCXV4rS3GxKOl0nIbKa5y8oYg9u7ObxzMaLjoEX66lyiQ8m5RrS9uGdtDiGEXC3L5TYva6y16SqEBNspthsYKPAN3nFz03y+3N4toD58sU5RnXOLDiXnSilNvapqeLaTE0LI1eG9Yvm0Q043oSkmzp8DnQLjbkrqNWPkdFnMiwJka3Fzt4BzrojohPqcnuikwuSy1fwEUHKukF7boIbxEwghhFwXT783RWFxkpgkDuF34znNuDVJTLqt5a9FBLhZNA0u9w+3MZrjguzEyE6K6Pii86o1seeJZIeSc4V0c60CQbVjNIcQQq6Junb4/WsNIKWeyokzg9nkehyRWJDcrGs6q15fdFxyd+thbVOb8/CPOzhXw9cu1oW6YhydUKvTHUsnncWxZYeScyUcKiJLOdrtZv+xJ0UIIeRk/P65jtf+5gttKTd5eaBNvCtF7XtfLzy3RW3O/cMdJtMJnKvhYkQnp7BSrY4WUZ1DsvNO4aHkXCvar6Kv9x77PdNWhBDy2VmvK6yWoW28XXejQWlCY1VOVeX0FNq1Ofkz4p3Bk8XcY1a0lP/Hf/0BVzu4ug6yU9dNCsulFJZrRXQGZQdor3+l/FByrhTtLAWTV+w2lBxCCPnMqCp+/VimWwAKeekWFUMGUlXaS1UdI0F0f9cUIU+nU/zn//tnkJyO6DSy4zsDCOqw8HSlB235OfQzOcLzIhdCmn28Ga67VJ2wzjnFZlXh5m52tvMkhBDydn5+X6Le+ygt7YLjLDNIaSsg+UxqGTcxVVWmsVpprzfW5lijeLhzeFxaAMDd/S2qao/HX0+wqlCj4bc1EA0zlxs14byNQMTkcxwStpIXnaEIJeeq0U7lfKyor3Y1zMRgPud/PyGEfCaWjxssn3ZNREZCQiYN/BduNCkqFYFJtToaZCJtnyQpWMVxzm8+97hxgs0mnNd//Oc/UFd7rJYbWKtZbIxRqDFQYyDGQFRgRDs1RSHmBBFISk+9RsAYybk+mmhO+bptV9yrAJtVBWsEk6k9x2kSQgh5JdvNHj++r+KtNOifwojJURxjctgmR3XyZ0FvPJxwT+k4b43ilNzfOrhaUO3Dsf77//836n99w3azhVUP9RZqPdTYLDnGGKjxOZrTkh0EWYtPIZ9zppeiK5bXy4p9xVeG5oKsYO7pVytX6RViDO4fZjCWpVmEEHLJ7Ksaf317RF3301TGABCBEYGY+FsEKJYFiCkhGYjivD9V1UUV+PlrAufD8bwqvv3rGzbrLYw1MMY2v1M0x0gQtiJ1FQqoCzmLz6X4p0V3DSXnCiklJ6WogtwgjzKZxswxRnD3MG/snxBCyEXhnMef//6NfeUG6nAEYpAlphQdGIHA5Ou7MVJEdFLk/zj1OMPnLfj9ZOFck1P49j9/YvW0jNGbIDjGGoiYLDv53CXJTntaikZ4yrF+hqHkXCndaI6msGQnmqMAjBXcPywoOoQQcmE45/HXt9+odq6owwkRjpymKqMzheAciuI0DSqnEZxEXQsel43oAMD3P7/jx98/G6kxjeAE2WkiOd0andQbL6lHPk1jMfL4lJwr5VA0J90XojkK7xXGCB7+WDB1RQghF8K+qvH3X085glMKTqi/CduZmOoZkpnw5bWp1SkjQaeM4pQ4J/j9aHPqCgAefz/i3//6d5QZ0zyHg5LTF5x8xNapF11jlJzrpRXNSWMhJMlRwKuPvzWKkODufo7pjMXIhBByTrabPX78/ZRrcAYFJ9bhhKhON00VJaeI+kBQRESAU0dxSlSBx6dJLkYGgKra4d//+hOb1aYjOGVNTqeGSKQvOSOCA1ByrpqXRHNUEQZhitt7Vdzdz7FYTM923oQQ8pVZPm5yF9UhwSnrcLLw9NJUJkvNOaI4vee2trm9HPHRf/39E3/+75/xc8r0U2uF2KQUW1vUxjvLKTlXzqFOq3YRckhbpdlh5/MJ7u7nH/bCJ4SQr46q4uf3JZZPzXQN+RI8IjiCbgQHvTRVU2x82o6ql7LbGTytbGtmhtrV+PHtO77/9R1AW266EZxuPU6+OQAl5wsQRCe9BDTfLtNW6cXmi6G1jTG4vZ9z0EBCCDkx63WFXz+akYxT9KYUkIOCk1NRAmPSAIHtNFW72BjF7Y/HecFyZVBV7TrQqqrw468f+P7ndwDtLrJWBCe1kmdkeJGSc/28LG2lRX0OoPBQH9bN5lPc3k9hLWt1CCHkmNS1w++f6/Zkmx3BCct6WHBiu7jE+pxGbC4jTTXGdmew3phW9xUA1M7h949f+P3jN9bLVSE1Tdime3sISs4XYThtdbg+R4P1QKP83NzOcHs7h7FMYRFCyHvwXvH0e4Pfv9aFaDRyk+aWyoKD0EWVB8fLtTdoFRofqsM5d5rqEKu1wWbbTmEldrsdlr+XeHp8xPL3U9ymKzvDUHK+CO1OK4zW5wyJToro+Ljd/GaGu7s57ITt5oQQ8hr2VY3lchvqbvKnr3bSMgPRm6KLquyqkhHBGa/DAS5RcoDw+bPdGWw2ptVu3toGiu1mi91mi2q7w25XYV9V2O9ruL2Dc3VLlCg5X4ie6Ay0lWssQG6kZ1h0FMBsNsF8McXiZnpxbxZCCLkUVBXr1Q7r1Q7bTZ3WAihEo6gxGRIcKQqIxwQHkgqNyxqddBaXLThdqkqwqwx2lRmM7rwUSs4XY6w+pyxE7osOoBqiO/CN9GjcFiqYzSeYLSaYzyac9JMQ8uXZVzWqXY31psJus8/X3lIuyrRUuj0UvUkdRklqmi6qdtSmKzh5Es8Lq8N5DarAvjao9oJqJ6MRnjEoOV8MbSlxuz6nKzq91FWUHonj6ZRzYUG1mA/LwE4tJhOD6dTCWgNr0/wkn+sNRgghQ6SaRlc7OKdwzqHee1T7GvtdDef84LWuKzZpXSk3QJhnCkWEJhUUaxnd6aWo+oLTrcNJj/dZUQX2e8G+FngffpwDvEq+v4SS8wXpis6hiE57Uk8f9keQn7xNK6pTFDKHB4uPKa3H1vyG67YBDp0jIYRcPkPyUFwNWxGb8FvTjq1U1WD0RqLMxO1MWk6FxS+I4Iyd4zXDAVC+IOHFn170yfY1r8/fNOLwOkFWwjeLJD0QgQpgFFAj8Bq2L4veoyuFY5rwO80BqlqMeDkgNF/tjUgIuU5MMS5NkhotoizllAXhktsMfpe6p3L0Bp06mxDsyePidSM4X11wAErOl6UtOgAGRQd5XRhEUCDhnRN2AaCfXQ+1AAAKwUlEQVTxPWR8syxNkKa4LfmtlqQnLY9Nfs5gDiHkszDmD1lowo0mxZTspEw7Id1Grr2BACZLUjNWTCv1L9ITnO4JfUXBASg5X5pGdGLIphCduAWAJCIGKlF0VKGxnAcacslqwwqjYZuUusrfI9IbD4Bo82Yb8pimQK85h+akj/TkCSHkrfQuXOPREkFbRvLYLmW0pRCbHLnpCU1KSTXbJoFqojtdwfl8hcbHhpLzxWmLDkIaKtbodFsP2+mr8BaTmMIKIiRNZCelqtKbURs/0SxVGLQcU8gVrYYQcnEMXJaSSAx9ccvRlTKqE9vCw+EauUmRG0WTyoI218xWeqoQICBVEjBFVULJIcM1OkArVZXTTa2oTm7OinlnIGWzcuoKMfITHih3FaSHM920Wee8wkMyb0UIuUzac0H1/Sen/ov0UlOAHMUm3t9NS+WYepqVO0ZvxtJT4VAUnBJKDgHQF51u+kpbaSwUBXMpbYWwrTG5Oyt7T47mhOLkHFXV4rEHv//E+xnNIYR8QorZllB8D2xJiikFqYzcpLRUed3N0Zux+hsKThdKDsmMiU5PcIo3ZbovvS9VY3QGxdutkJl0PBTiE47YeUN2ojd8uxJCLo3eV7MRscgRcS2i3uGeIrrTRH1S5Ka9Pwq5CXs06an22VBwGig5pEU7RdQpWnux7Cgk9Iy3Co8H004yEqfpvEmZsiKEXBrmBTLRVBammppCWIpO1hzZeYHcMD31cig5ZJDDUZ3m/m4HVO7EQqcdvWidzG/J/G3keYHhm5cQ8hkxRRQHKGp0gFx4nMRG0Fw707axFqD4AsrozWug5JBRDkV1+iksoF18Jx3hwcB+Q6mw7pEIIeRzMPZ1TcSgGUCsHQEqW8HT7V7kBo3cMHrzOig55FmelR0MvdH6wgO0R/9sDZL1DExXEUIujaExcUa3RRrlvZjUZkBswvp4NEVOZVFu3gYlh7yYfgrrJbIDpOK6rqjIM6mqVvUP39CEkAvm0Newbi1j+1o5MPhpKTcDR+f18OVQcsir6I9d0x9R87Dw5CONHI8QQj4fg1/vetfAMhLT2bMQmzRWKuXm/VByyJsYk53yvnR/U4Ejw1cCQgi5QvpO0ghNumQ+JzYA5eY9UHLIu+gKTVwavL+klB9gYJwcvqcJIZ+Nrp9oe7GZ0qFZT7E5LZQccjSGU0+DM7nwDUwIuT4OXNaKr4OHD8Fr41Gh5JCjMxzdKWH9DSGEJCg2p4OSQ07KS968LDomhFwrFJjzQskhZ4cXAUIIIafAPL8JIYQQQsjng5JDCCGEkKuEkkMIIYSQq4SSQwghhJCrhIXH5OioAvu9YF8LvA8/zgFem9l0CSHkM5P6JYworAWMURijmE4U06kOjHZMjoIC3gPOpeUwB6LGCU27UHLIu1EF9rVBtRdUO4HzfHcTQq6b9GXNqcB5oDsSoDWK2VwxmyqmE0/peSOqCvUGzgGuVqgOTwI9hqyXFb9XkzdRVYJdZbCrDKMzhBAygggwn3nMZx6zGS+WL8E7wNWCun7fcSg55FWoAtudwWZjDkZsnNcgPqrwGvbTuI5CRAj5bOTLVrqASZAXEYWIwEgY88tYgTXj5a7WKG5uPBZzRne6qGoQmz1GIjYB7xXqY5QHCMtxGvfu5wslh7yY1dpgs7WDkqKqcB7wLvxWfeEcm3yXE0LOzQu+efW2iPtoXE4jt4ffHpOJgbUGk4mBGZAeEeBm4XB369916tfCvgLqeriuRjWIjXfh79z+7zr8GULJIc+y3RmsNwbOtV9MCqCuFT7KDYWFEPJlKCUn3i6FJ/x4qFcYC0ynE8zmE5jOddJaxW2M7HxF6lpQ7xXayQyopi/NIWoDvO0jhpJDRnFesFwZVFX7W0iSm6Fcae81SPEhhHx2OpGewQ/NUnLS70J0vPfw3mO+mGCxmMHa9nV1NvO4v/Ow5mt8JHsF6irU3ZSoAs4pXP18h9pLpgSi5JBBdjuDp1U7NTUkN/klRpkhhHw1utGcuK6UndAd5PNv7z1UHeaLKW5u5zDSyI4I8HDnML/yqI6rBdWuvS5HblxfSd4zvyElh/RYri02m+aNpwhmXdetmjuKDSGEJJLcdG930lfeK7x38M4D6nFzN8fN7aIVBb+58bi/dR96+h/FvgqFxZkUufHassVjTdxMySEZVeDxaYJq37y4FEBVhbobgHJDCCEHGZKd3AXUjuh47+Ccw8Ra/PHPW1hr826zqeKPh/p6LrcK7LaSP0uA8JlT730rY3AsucnHo+QQAHBO8PvRttrCnVfs90Wn1NW82wgh5MSUslOkrqChPqcrOt45/OOfd1jcLPIhrFH84w8Haz/3x7SqYLdpD+TnvaLeN8/r2HKTj0vJIXUteFzaVvdU7YLgUG4IIeQdFLKTJEeT6KiHdx7eBdFxdY27hxs8/HGXd7dW8ce9w2TyOT+qvQsDx2oRwXF1U3tzKrlJcILOL45zbcFRANWegkMIIUdBJNfbSBg9MAwaaAxEwhg6xtr8s3xa4+f3X1mMutfoz4Sq9ASn3vsPExyAkvOlUUVIUZWCUymco+AQQsjROCQ68SfJjjUWm3WFv7/9gI/FKqmc4FONFq8IKaooOKrAvvJNfecHfb5Qcr4wj0+TXINTFhhTcAgh5MiMiE6QnSA8WXSsRbXb4/u3H3l35wWPT59nTu3dVpoanE6B8UcJDkDJ+bIs17bVRbXfU3AIIeSkDIlOTFvlaI4xMDb87LYV/v6zEZ1qL1iu7fCxL4h91e6iquvzCA5AyfmS7OIEm4l9zRQVIYR8CKXopJ9e+srCGAtjDdbLDX79+JV332wMdrvL/ehOE2w2t/XDU1Qll/uXIifBecHTyha3wyB/FBxCCPkgkugUKasgN0XaypgsOr9+PGG5XOXdn1bt4T4uBa9ojWRcjmB8DsEBKDlfjuXK5LChKlBV8Q4KDiGEfBzpmtuqzxkRHWPw9//+hSpesFXDtfzSqKtmWTWUQQDnExyAkvOl2O7ak21W6QV4rhMihJAvzHDayhSRnaZGB2Lw97fved+qMtheUNqqrqU12ea+8hfx3fly/kLk5KyLOpzaNXnSi3glEkLIV6MTzckRnSKaI8V4Otv1Do+/fufdy2v6uSlHLy4n2TxnFAeg5HwZVmvTHtGYURxCCDk7h6M5TXt5qtn5+9sPOBcm73ROsFqf/2N8XwFaTglUX86APuf/65CTowpstk2xce0UiuIbBCGEkPMwGM0pZSfITVpWVfz6/jPvvtmed5BAVUVdDwvOuaM4ACXnS7DdFcXGYBSHEEIuiW40B+ikrsTEiE5Y9+PvX9jvQ5+2Ks5am+NqAYpmlrr2h3f4YCg5X4ByTJy6ZhSHEEIuisFOq6bjCkUkRyRcz1vRnDPW5pRj4tS1ImvahXy+UHKunKqS1tQNe0ZxCCHk4mhdk2PKqi88zc+Pv3/CuRA1cT5MhPnReIc8dYMq4OvL6KgqoeRcObuiZdzVSrkhhJALpkxZhakf0BQix/SViAAqrU6r8lr/UZQt487pRX57puRcMartF35dtPVdnG4TQshXpntNjqMiC5qoTlzIkZ7Hn495811lPrQAORQcN7e997i0VBVAyblq9nU5unEcF+eCXnyEEEI6pLqcuCwiUXSKnyg669W6NQryvv64j3T1zWOpKrz7sId+Ff8HzsW0AeTj4kAAAAAASUVORK5CYII=;" vertex="1" parent="1">
          <mxGeometry x="856.5" y="1030" width="569" height="389" as="geometry" />
        </mxCell>
        <mxCell id="mzzmHDJJswK5GQx1aQZ7-13" value="" style="endArrow=none;html=1;rounded=0;" edge="1" parent="1">
          <mxGeometry width="50" height="50" relative="1" as="geometry">
            <mxPoint x="180" y="1100" as="sourcePoint" />
            <mxPoint x="1590" y="1080" as="targetPoint" />
          </mxGeometry>
        </mxCell>
        <mxCell id="mzzmHDJJswK5GQx1aQZ7-14" value="" style="endArrow=none;html=1;rounded=0;" edge="1" parent="1">
          <mxGeometry width="50" height="50" relative="1" as="geometry">
            <mxPoint x="180" y="1380" as="sourcePoint" />
            <mxPoint x="1590" y="1360" as="targetPoint" />
          </mxGeometry>
        </mxCell>
      </root>
    </mxGraphModel>
  </diagram>
</mxfile>
